<svg width="64" height="64" viewBox="0 0 64 64" fill="none" xmlns="http://www.w3.org/2000/svg">
<rect width="64" height="64" rx="16" fill="white"/>
<mask id="mask0_216_53" style="mask-type:luminance" maskUnits="userSpaceOnUse" x="5" y="7" width="54" height="50">
<path d="M58.1808 7.26697H5.81915V56.7331H58.1808V7.26697Z" fill="white"/>
</mask>
<g mask="url(#mask0_216_53)">
<path d="M33.073 32.703C29.1833 32.703 25.2356 34.6881 22.7165 37.6255C19.9979 41.0551 17.7683 45.0253 16.8964 49.3686C15.8379 52.483 18.238 56.0639 21.5615 56.0864C25.5638 56.199 28.9999 53.4482 32.9765 53.2455C36.3514 52.7307 39.3725 54.4874 42.4064 55.636C44.9803 56.7427 48.5579 56.318 49.877 53.5351C50.913 50.7006 49.388 47.6731 48.1236 45.1701C45.5497 41.0841 42.7796 36.7858 38.5489 34.2312C36.9048 33.2212 35.0089 32.6959 33.0794 32.7159L33.073 32.703ZM12.1605 23.0221C11.1567 22.9976 10.1712 23.2935 9.34691 23.8668C8.52258 24.44 7.90225 25.2609 7.57583 26.2105C5.84813 31.6123 9.31961 38.4362 15.0335 39.5848C17.4176 39.9934 19.512 38.1595 20.1008 35.9557C21.3556 31.2359 18.7817 25.76 14.4287 23.6205C13.74 23.2354 12.9656 23.0297 12.1766 23.0221H12.1605ZM52.9656 21.9861C48.3037 22.266 45.1057 26.9247 44.6521 31.2713C44.0344 34.4082 45.7041 38.6035 49.2786 38.8545C54.2622 38.7934 57.6629 33.4591 57.8044 28.8808C58.1262 25.8469 56.3341 22.1631 52.9785 21.9958L52.9656 21.9861ZM22.858 7.51468C20.1652 7.57903 18.0643 10.317 17.6396 12.8876C16.7387 17.9838 19.0552 24.3155 24.3573 25.9273C24.8545 26.0345 25.3671 26.0486 25.8694 25.9692C29.4535 25.3707 30.9721 21.3491 30.8209 18.0996C30.7147 13.8174 28.4916 8.86273 24.0452 7.65624C23.6582 7.55331 23.2585 7.50565 22.858 7.51468ZM41.2353 7.31521C41.1291 7.31521 41.0197 7.31521 40.9136 7.31521C36.5799 8.06484 34.1958 12.6527 33.8355 16.7001C33.3304 20.371 34.9455 25.0876 38.9832 25.9113C39.5693 26.0141 40.1711 25.9822 40.7431 25.8179C45.5915 24.19 47.7632 18.4407 47.0619 13.679C46.8592 10.6033 44.5427 7.24443 41.2321 7.29912L41.2353 7.31521Z" fill="black"/>
</g>
</svg>
