<svg aria-hidden="true" style="position: absolute; width: 0; height: 0; overflow: hidden;" version="1.1" xmlns="http://www.w3.org/2000/svg" xmlns:xlink="http://www.w3.org/1999/xlink">
<defs>

<!--Icone whatsapp -->
<symbol id="icon-whatsapp" viewBox="0 0 32 32">
<path d=" M19.11 17.205c-.372 0-1.088 1.39-1.518 1.39a.63.63 0 0 1-.315-.1c-.802-.402-1.504-.817-2.163-1.447-.545-.516-1.146-1.29-1.46-1.963a.426.426 0 0 1-.073-.215c0-.33.99-.945.99-1.49 0-.143-.73-2.09-.832-2.335-.143-.372-.214-.487-.6-.487-.187 0-.36-.043-.53-.043-.302 0-.53.115-.746.315-.688.645-1.032 1.318-1.06 2.264v.114c-.015.99.472 1.977 1.017 2.78 1.23 1.82 2.506 3.41 4.554 4.34.616.287 2.035.888 2.722.888.817 0 2.15-.515 2.478-1.318.13-.33.244-.73.244-1.088 0-.058 0-.144-.03-.215-.1-.172-2.434-1.39-2.678-1.39zm-2.908 7.593c-1.747 0-3.48-.53-4.942-1.49L7.793 24.41l1.132-3.337a8.955 8.955 0 0 1-1.72-5.272c0-4.955 4.04-8.995 8.997-8.995S25.2 10.845 25.2 15.8c0 4.958-4.04 8.998-8.998 8.998zm0-19.798c-5.96 0-10.8 4.842-10.8 10.8 0 1.964.53 3.898 1.546 5.574L5 27.176l5.974-1.92a10.807 10.807 0 0 0 16.03-9.455c0-5.958-4.842-10.8-10.802-10.8z" />
</symbol>

<!-- icon instagram -->
<symbol id="icon-instagram" viewBox="0 0 512 512">
<path d="M446.951 176.897C446.051 156.494 442.752 142.467 438.025 130.312C433.149 117.41 425.648 105.859 415.82 96.2564C406.217 86.5045 394.59 78.9268 381.837 74.127C369.612 69.4005 355.658 66.101 335.255 65.2014C314.699 64.2256 308.173 64 256.038 64C203.903 64 197.377 64.2256 176.897 65.1252C156.494 66.0248 142.467 69.3272 130.315 74.0508C117.41 78.9268 105.859 86.4283 96.2564 96.2564C86.5045 105.859 78.9297 117.486 74.127 130.239C69.4005 142.467 66.101 156.418 65.2014 176.821C64.2256 197.377 64 203.903 64 256.038C64 308.173 64.2256 314.699 65.1252 335.179C66.0248 355.582 69.3272 369.609 74.0538 381.764C78.9297 394.666 86.5045 406.217 96.2564 415.82C105.859 425.572 117.486 433.149 130.239 437.949C142.467 442.676 156.418 445.975 176.824 446.875C197.301 447.777 203.829 448 255.965 448C308.1 448 314.626 447.777 335.106 446.875C355.509 445.975 369.536 442.676 381.688 437.949C407.495 427.972 427.898 407.568 437.876 381.764C442.6 369.536 445.902 355.582 446.802 335.179C447.701 314.699 447.927 308.173 447.927 256.038C447.927 203.903 447.851 197.377 446.951 176.897ZM412.371 333.678C411.545 352.432 408.395 362.559 405.769 369.311C399.317 386.039 386.039 399.317 369.311 405.769C362.559 408.395 352.359 411.545 333.678 412.368C313.424 413.27 307.35 413.493 256.114 413.493C204.879 413.493 198.728 413.27 178.547 412.368C159.793 411.545 149.666 408.395 142.915 405.769C134.59 402.692 127.012 397.816 120.862 391.44C114.486 385.213 109.61 377.712 106.533 369.387C103.907 362.635 100.757 352.432 99.9339 333.755C99.0314 313.501 98.8087 307.423 98.8087 256.188C98.8087 204.952 99.0314 198.801 99.9339 178.623C100.757 159.87 103.907 149.743 106.533 142.991C109.61 134.663 114.486 127.089 120.938 120.935C127.162 114.559 134.663 109.683 142.991 106.609C149.743 103.984 159.946 100.833 178.623 100.007C198.877 99.1075 204.955 98.8819 256.188 98.8819C307.499 98.8819 313.574 99.1075 333.755 100.007C352.508 100.833 362.635 103.984 369.387 106.609C377.712 109.683 385.289 114.559 391.44 120.935C397.816 127.162 402.692 134.663 405.769 142.991C408.395 149.743 411.545 159.943 412.371 178.623C413.27 198.877 413.496 204.952 413.496 256.188C413.496 307.423 413.27 313.424 412.371 333.678Z" fill="currentcolor"/>
<path d="M256.038 157.394C201.579 157.394 157.394 201.576 157.394 256.038C157.394 310.5 201.579 354.683 256.038 354.683C310.5 354.683 354.683 310.5 354.683 256.038C354.683 201.576 310.5 157.394 256.038 157.394ZM256.038 320.026C220.708 320.026 192.05 291.371 192.05 256.038C192.05 220.705 220.708 192.05 256.038 192.05C291.371 192.05 320.026 220.705 320.026 256.038C320.026 291.371 291.371 320.026 256.038 320.026Z" fill="currentcolor"/>
<path d="M381.615 153.493C381.615 166.211 371.303 176.522 358.583 176.522C345.866 176.522 335.554 166.211 335.554 153.493C335.554 140.773 345.866 130.464 358.583 130.464C371.303 130.464 381.615 140.773 381.615 153.493Z" fill="currentcolor"/>
</symbol>

<!-- icon facebook -->
<symbol id="icon-facebook" viewBox="0 0 512 512">
<path d="M316.96 127.76H352.016V66.704C345.968 65.872 325.168 64 300.944 64C250.4 64 215.776 95.792 215.776 154.224V208H160V276.256H215.776V448H284.16V276.272H337.68L346.176 208.016H284.144V160.992C284.16 141.264 289.472 127.76 316.96 127.76Z" fill="currentcolor"/>
</symbol>


<!-- frete -->
<symbol id="icon-frete" viewBox="0 0 55 32">
<path d="M38.5479 0.318482C43.236 1.40635 45.0293 4.14769 47.2776 7.92079H38.5479V0.318482ZM11.1502 8.23762C12.0681 8.23762 12.7343 8.68069 12.7343 9.71617C12.7343 10.5895 12.0276 11.2979 11.1547 11.3003H1.58416C0.709158 11.3003 0 12.0099 0 12.8845C0 13.7595 0.709158 14.4686 1.58416 14.4686H15.8416C16.7248 14.4686 17.4319 15.1774 17.4319 16.0528C17.4319 16.9278 16.7228 17.637 15.8478 17.637H1.58416C0.709158 17.637 0 18.3461 0 19.2211C0 20.0961 0.709158 20.8053 1.58416 20.8053H5.06931V25.5578C5.06931 26.4328 5.77847 27.1419 6.65347 27.1419H9.83787C10.4055 29.9381 12.8762 32 15.7888 32C18.7013 32 21.172 29.9381 21.7397 27.1419H37.8247C38.3923 29.9381 40.863 32 43.7756 32C46.6881 32 49.1588 29.9381 49.7265 27.1419H52.4884C53.3634 27.1419 54.0726 26.4328 54.0726 25.5578V16.0528C54.0726 11.4047 49.17 11.0961 49.1654 11.0891H36.9637C36.0887 11.0891 35.3795 10.38 35.3795 9.50495V0H6.65347C5.77847 0 5.06931 0.709158 5.06931 1.58416V5.06931H3.16832C2.29332 5.06931 1.58416 5.77847 1.58416 6.65347C1.58416 7.52847 2.29332 8.23762 3.16832 8.23762H11.1502ZM45.8292 23.8738C46.9633 25.0078 46.9633 26.8474 45.8292 27.9814C44.005 29.8057 40.8713 28.5078 40.8713 25.9274C40.8713 23.3474 44.005 22.0495 45.8292 23.8738ZM17.8424 23.8738C18.9765 25.0078 18.9765 26.8474 17.8424 27.9814C16.0182 29.8057 12.8845 28.5078 12.8845 25.9274C12.8845 23.3474 16.0182 22.0495 17.8424 23.8738Z"/>
</symbol>


</defs>
</svg>