<svg width="224" height="44" viewBox="0 0 224 44" fill="none" xmlns="http://www.w3.org/2000/svg">
<path d="M6.97655 35.4958L6.97655 35.4958C6.85756 33.7597 7.292 32.0625 8.2312 30.5974L13.1937 22.8559C14.5521 20.7363 16.4909 19.1331 18.7321 18.1982C17.1699 17.9026 15.7883 17.0856 14.7111 15.928C15.067 17.4136 15.0075 18.9557 14.5111 20.367C13.8613 22.2156 12.5388 23.6388 10.7683 24.3188C10.0638 24.5901 9.3152 24.7288 8.56025 24.7279M6.97655 35.4958L8.56025 24.7279M6.97655 35.4958C7.09566 37.2326 7.75831 38.8538 8.88886 40.1776L8.88936 40.1781C10.0209 41.501 11.52 42.4074 13.2171 42.7954L13.2171 42.7954C14.9144 43.1833 16.6589 43.0172 18.2528 42.3166L18.2563 42.315L18.3447 42.2758C21.6048 40.873 25.3315 40.8867 28.5828 42.3165L28.5828 42.3165C29.6131 42.7695 30.7086 43 31.8157 43C32.4174 43 33.0209 42.9317 33.6168 42.7959L33.6173 42.7958C35.3145 42.4082 36.8137 41.5017 37.9455 40.1785L37.9456 40.1784C39.0769 38.8555 39.7399 37.2337 39.8593 35.4967C39.9788 33.7598 39.5443 32.0629 38.6052 30.5972L38.6051 30.597L38.3309 30.1694C39.2257 30.6183 40.2022 30.8325 41.1845 30.8325C43.4812 30.8325 45.8135 29.6663 47.3558 27.5849L47.3565 27.584C49.7373 24.363 49.4931 19.8524 46.4631 17.5507L46.4597 17.5473L46.3993 17.5026C46.3894 17.4953 46.3795 17.488 46.3696 17.4808L44.8062 16.323V16.6523C43.1303 16.0542 41.2659 16.2092 39.6036 16.9787C40.0471 16.3234 40.4103 15.5939 40.6724 14.8056C41.3213 12.8547 41.2862 10.7685 40.5432 8.93292C39.764 7.00668 38.2963 5.56585 36.3928 4.93321L36.3927 4.9332C34.4888 4.3005 32.4506 4.57623 30.6734 5.65253C29.4404 6.39907 28.4286 7.47647 27.7193 8.75986C27.3205 4.50468 24.1309 1 20.0386 1C15.661 1 12.3166 5.01112 12.3166 9.66093C12.3166 10.4986 12.4252 11.3156 12.6289 12.0921M6.97655 35.4958L12.6289 12.0921M8.56025 24.7279C5.6642 24.7273 2.91468 22.7355 1.75111 19.7177L1.75065 19.7166C0.303723 15.9499 1.77025 11.6346 5.3575 10.2548C7.1257 9.5733 9.06077 9.74337 10.7815 10.6787L10.7817 10.6788C11.4668 11.0514 12.0877 11.5297 12.6289 12.0921M8.56025 24.7279L12.6289 12.0921M33.3809 20.4815C32.7414 20.4819 32.1056 20.3876 31.4943 20.2019H31.4869L31.3333 20.1508C31.3062 20.1418 31.2793 20.1327 31.2524 20.1234C32.1673 20.8975 32.975 21.8143 33.6426 22.8558L34.8883 24.7991C34.7804 23.1244 35.2436 21.3594 36.2624 19.8437C35.356 20.2564 34.3787 20.4814 33.3809 20.4815ZM33.3809 20.4815C33.3807 20.4815 33.3805 20.4815 33.3803 20.4815V19.4815L33.3809 20.4815ZM39.7235 14.49C40.3025 12.7494 40.2643 10.9089 39.6162 9.30793C38.9382 7.63188 37.6815 6.41529 36.0774 5.88218L39.7235 14.49ZM26.6658 14.0988C26.8683 15.7542 27.553 17.2882 28.6465 18.4404C27.1345 17.7204 25.4675 17.313 23.7369 17.2684C24.9548 16.5209 25.9631 15.4177 26.6658 14.0988Z" fill="#34C1FC" stroke="white" stroke-width="2"/>
<path d="M64.3148 21.008C64.4908 20.928 64.7388 20.848 65.0588 20.768C65.3948 20.672 65.7308 20.624 66.0668 20.624C66.6588 20.624 67.1468 20.712 67.5308 20.888C67.9308 21.064 68.1788 21.328 68.2748 21.68C68.5468 22.624 68.7948 23.488 69.0188 24.272C69.2428 25.056 69.4588 25.816 69.6668 26.552C69.8908 27.272 70.1068 28.032 70.3148 28.832H70.4108C70.6348 27.504 70.8348 26.232 71.0108 25.016C71.1868 23.8 71.3548 22.6 71.5148 21.416C71.6748 20.232 71.8268 19.016 71.9708 17.768C72.4988 17.48 73.0428 17.336 73.6028 17.336C74.1308 17.336 74.5788 17.448 74.9468 17.672C75.3148 17.896 75.4988 18.272 75.4988 18.8C75.4988 19.152 75.4588 19.648 75.3788 20.288C75.3148 20.912 75.2188 21.632 75.0908 22.448C74.9628 23.264 74.8108 24.112 74.6348 24.992C74.4748 25.872 74.2988 26.736 74.1068 27.584C73.9148 28.416 73.7228 29.176 73.5308 29.864C73.3388 30.536 73.1548 31.08 72.9788 31.496C72.7708 31.672 72.4348 31.832 71.9708 31.976C71.5068 32.104 71.0188 32.168 70.5068 32.168C69.8668 32.168 69.3148 32.08 68.8508 31.904C68.3868 31.712 68.1068 31.456 68.0108 31.136C67.8508 30.672 67.6668 30.128 67.4588 29.504C67.2668 28.88 67.0668 28.2 66.8588 27.464C66.6508 26.712 66.4428 25.944 66.2348 25.16C66.0588 25.928 65.8668 26.712 65.6588 27.512C65.4508 28.296 65.2508 29.032 65.0588 29.72C64.8668 30.408 64.6908 31 64.5308 31.496C64.3228 31.672 64.0028 31.832 63.5708 31.976C63.1548 32.104 62.6908 32.168 62.1788 32.168C61.5708 32.168 61.0108 32.072 60.4988 31.88C59.9868 31.688 59.6588 31.44 59.5148 31.136C59.3548 30.768 59.1628 30.216 58.9388 29.48C58.7308 28.728 58.5068 27.872 58.2668 26.912C58.0428 25.936 57.8268 24.92 57.6188 23.864C57.4108 22.808 57.2188 21.784 57.0428 20.792C56.8668 19.784 56.7308 18.88 56.6348 18.08C56.8428 17.904 57.1148 17.736 57.4508 17.576C57.8028 17.416 58.1868 17.336 58.6028 17.336C59.1308 17.336 59.5628 17.456 59.8988 17.696C60.2348 17.92 60.4508 18.312 60.5468 18.872C60.8028 20.344 61.0108 21.608 61.1708 22.664C61.3468 23.72 61.4908 24.624 61.6028 25.376C61.7308 26.128 61.8428 26.784 61.9388 27.344C62.0348 27.888 62.1308 28.384 62.2268 28.832H62.3468C62.5068 28.176 62.6588 27.568 62.8028 27.008C62.9468 26.432 63.0988 25.856 63.2588 25.28C63.4188 24.688 63.5868 24.056 63.7628 23.384C63.9388 22.696 64.1228 21.904 64.3148 21.008ZM93.37 24.704C93.37 26.368 93.042 27.776 92.386 28.928C91.746 30.064 90.858 30.928 89.722 31.52C88.602 32.112 87.33 32.408 85.906 32.408C84.482 32.408 83.21 32.112 82.09 31.52C80.97 30.928 80.09 30.064 79.45 28.928C78.81 27.776 78.49 26.368 78.49 24.704C78.49 23.04 78.818 21.64 79.474 20.504C80.13 19.352 81.018 18.488 82.138 17.912C83.258 17.32 84.514 17.024 85.906 17.024C87.314 17.024 88.578 17.32 89.698 17.912C90.834 18.488 91.73 19.352 92.386 20.504C93.042 21.64 93.37 23.04 93.37 24.704ZM89.602 24.704C89.602 23.168 89.266 22 88.594 21.2C87.938 20.4 87.042 20 85.906 20C84.818 20 83.938 20.4 83.266 21.2C82.594 21.984 82.258 23.152 82.258 24.704C82.258 26.272 82.586 27.456 83.242 28.256C83.914 29.04 84.81 29.432 85.93 29.432C87.05 29.432 87.938 29.04 88.594 28.256C89.266 27.456 89.602 26.272 89.602 24.704ZM100.863 24.272H102.423C103.223 24.272 103.863 24.096 104.343 23.744C104.839 23.376 105.087 22.84 105.087 22.136C105.087 21.448 104.855 20.928 104.391 20.576C103.927 20.208 103.215 20.024 102.255 20.024C101.983 20.024 101.735 20.032 101.511 20.048C101.287 20.064 101.071 20.096 100.863 20.144V24.272ZM102.759 27.104H97.2386V18.728C97.2386 18.424 97.3266 18.184 97.5026 18.008C97.6786 17.832 97.9106 17.696 98.1986 17.6C98.7266 17.408 99.3426 17.272 100.047 17.192C100.767 17.112 101.511 17.072 102.279 17.072C104.439 17.072 106.063 17.528 107.151 18.44C108.239 19.336 108.783 20.56 108.783 22.112C108.783 23.072 108.519 23.936 107.991 24.704C107.479 25.456 106.767 26.048 105.855 26.48C104.959 26.896 103.927 27.104 102.759 27.104ZM102.087 26.24L105.351 25.472C105.719 25.984 106.095 26.488 106.479 26.984C106.879 27.48 107.255 27.96 107.607 28.424C107.975 28.888 108.303 29.32 108.591 29.72C108.879 30.104 109.111 30.432 109.287 30.704C109.143 31.184 108.887 31.56 108.519 31.832C108.151 32.088 107.735 32.216 107.271 32.216C106.679 32.216 106.223 32.088 105.903 31.832C105.599 31.56 105.311 31.208 105.039 30.776L102.087 26.24ZM97.2386 25.736H100.887V31.976C100.743 32.024 100.511 32.064 100.191 32.096C99.8706 32.144 99.5426 32.168 99.2066 32.168C98.4866 32.168 97.9746 32.04 97.6706 31.784C97.3826 31.528 97.2386 31.08 97.2386 30.44V25.736ZM112.923 21.896H116.571V31.856L114.867 32.048C114.275 32.048 113.803 31.872 113.451 31.52C113.099 31.168 112.923 30.696 112.923 30.104V21.896ZM114.867 32.048V29.072H122.403C122.515 29.232 122.611 29.44 122.691 29.696C122.771 29.936 122.811 30.208 122.811 30.512C122.811 31.024 122.699 31.408 122.475 31.664C122.251 31.92 121.939 32.048 121.539 32.048H114.867ZM116.571 26.456H112.923V17.408C113.083 17.376 113.323 17.336 113.643 17.288C113.979 17.24 114.299 17.216 114.603 17.216C115.307 17.216 115.811 17.336 116.115 17.576C116.419 17.816 116.571 18.272 116.571 18.944V26.456ZM135.837 24.728C135.837 26.264 135.453 27.424 134.685 28.208C133.933 28.992 132.925 29.384 131.661 29.384C131.389 29.384 131.101 29.376 130.797 29.36C130.493 29.328 130.221 29.288 129.981 29.24V20.144C130.253 20.112 130.517 20.088 130.773 20.072C131.045 20.04 131.325 20.024 131.613 20.024C132.445 20.024 133.173 20.2 133.797 20.552C134.437 20.888 134.933 21.4 135.285 22.088C135.653 22.776 135.837 23.656 135.837 24.728ZM139.605 24.656C139.605 22.944 139.261 21.528 138.573 20.408C137.885 19.288 136.925 18.456 135.693 17.912C134.477 17.352 133.045 17.072 131.397 17.072C130.789 17.072 130.117 17.104 129.381 17.168C128.645 17.232 127.957 17.368 127.317 17.576C127.029 17.688 126.797 17.832 126.621 18.008C126.445 18.168 126.357 18.408 126.357 18.728V30.2C126.357 30.968 126.773 31.504 127.605 31.808C128.229 32.032 128.925 32.176 129.693 32.24C130.461 32.32 131.109 32.36 131.637 32.36C133.237 32.36 134.629 32.08 135.813 31.52C137.013 30.944 137.941 30.088 138.597 28.952C139.269 27.816 139.605 26.384 139.605 24.656ZM153.1 24.44H154.54C155.356 24.44 155.996 24.248 156.46 23.864C156.94 23.48 157.18 22.928 157.18 22.208C157.18 21.488 156.956 20.944 156.508 20.576C156.06 20.208 155.412 20.024 154.564 20.024C154.276 20.024 154.012 20.032 153.772 20.048C153.548 20.064 153.324 20.088 153.1 20.12V24.44ZM154.78 27.32H149.476V18.728C149.476 18.424 149.564 18.184 149.74 18.008C149.916 17.832 150.148 17.696 150.436 17.6C150.964 17.408 151.596 17.272 152.332 17.192C153.068 17.112 153.732 17.072 154.324 17.072C156.484 17.072 158.116 17.536 159.22 18.464C160.34 19.376 160.9 20.624 160.9 22.208C160.9 23.232 160.652 24.128 160.156 24.896C159.676 25.664 158.98 26.264 158.068 26.696C157.156 27.112 156.06 27.32 154.78 27.32ZM149.476 25.712H153.124V31.976C152.98 32.024 152.748 32.064 152.428 32.096C152.108 32.144 151.78 32.168 151.444 32.168C150.724 32.168 150.212 32.04 149.908 31.784C149.62 31.528 149.476 31.08 149.476 30.44V25.712ZM170.767 32.408C169.455 32.408 168.327 32.176 167.383 31.712C166.455 31.232 165.735 30.568 165.223 29.72C164.727 28.872 164.479 27.88 164.479 26.744V25.16H168.151V26.648C168.151 27.528 168.391 28.216 168.871 28.712C169.367 29.192 169.999 29.432 170.767 29.432C171.535 29.432 172.159 29.192 172.639 28.712C173.135 28.216 173.383 27.528 173.383 26.648V25.16H177.055V26.744C177.055 27.88 176.807 28.872 176.311 29.72C175.815 30.568 175.095 31.232 174.151 31.712C173.207 32.176 172.079 32.408 170.767 32.408ZM168.151 25.88H164.479V17.408C164.655 17.376 164.903 17.336 165.223 17.288C165.543 17.24 165.863 17.216 166.183 17.216C166.871 17.216 167.367 17.336 167.671 17.576C167.991 17.816 168.151 18.272 168.151 18.944V25.88ZM177.055 25.928H173.383V17.408C173.559 17.376 173.807 17.336 174.127 17.288C174.463 17.24 174.783 17.216 175.087 17.216C175.775 17.216 176.271 17.336 176.575 17.576C176.895 17.816 177.055 18.272 177.055 18.944V25.928ZM185.219 24.44H186.659C187.475 24.44 188.115 24.248 188.579 23.864C189.059 23.48 189.299 22.928 189.299 22.208C189.299 21.488 189.075 20.944 188.627 20.576C188.179 20.208 187.531 20.024 186.683 20.024C186.395 20.024 186.131 20.032 185.891 20.048C185.667 20.064 185.443 20.088 185.219 20.12V24.44ZM186.899 27.32H181.595V18.728C181.595 18.424 181.683 18.184 181.859 18.008C182.035 17.832 182.267 17.696 182.555 17.6C183.083 17.408 183.715 17.272 184.451 17.192C185.187 17.112 185.851 17.072 186.443 17.072C188.603 17.072 190.235 17.536 191.339 18.464C192.459 19.376 193.019 20.624 193.019 22.208C193.019 23.232 192.771 24.128 192.275 24.896C191.795 25.664 191.099 26.264 190.187 26.696C189.275 27.112 188.179 27.32 186.899 27.32ZM181.595 25.712H185.243V31.976C185.099 32.024 184.867 32.064 184.547 32.096C184.227 32.144 183.899 32.168 183.563 32.168C182.843 32.168 182.331 32.04 182.027 31.784C181.739 31.528 181.595 31.08 181.595 30.44V25.712ZM200.294 24.44H201.734C202.55 24.44 203.19 24.248 203.654 23.864C204.134 23.48 204.374 22.928 204.374 22.208C204.374 21.488 204.15 20.944 203.702 20.576C203.254 20.208 202.606 20.024 201.758 20.024C201.47 20.024 201.206 20.032 200.966 20.048C200.742 20.064 200.518 20.088 200.294 20.12V24.44ZM201.974 27.32H196.67V18.728C196.67 18.424 196.758 18.184 196.934 18.008C197.11 17.832 197.342 17.696 197.63 17.6C198.158 17.408 198.79 17.272 199.526 17.192C200.262 17.112 200.926 17.072 201.518 17.072C203.678 17.072 205.31 17.536 206.414 18.464C207.534 19.376 208.094 20.624 208.094 22.208C208.094 23.232 207.846 24.128 207.35 24.896C206.87 25.664 206.174 26.264 205.262 26.696C204.35 27.112 203.254 27.32 201.974 27.32ZM196.67 25.712H200.318V31.976C200.174 32.024 199.942 32.064 199.622 32.096C199.302 32.144 198.974 32.168 198.638 32.168C197.918 32.168 197.406 32.04 197.102 31.784C196.814 31.528 196.67 31.08 196.67 30.44V25.712ZM218.729 27.32H215.465C215.049 26.712 214.593 26.024 214.097 25.256C213.601 24.488 213.113 23.696 212.633 22.88C212.153 22.048 211.697 21.248 211.265 20.48C210.849 19.712 210.513 19.024 210.257 18.416C210.433 18.16 210.673 17.92 210.977 17.696C211.297 17.472 211.697 17.36 212.177 17.36C212.721 17.36 213.161 17.48 213.497 17.72C213.833 17.944 214.153 18.36 214.457 18.968C214.665 19.352 214.873 19.752 215.081 20.168C215.305 20.568 215.521 20.984 215.729 21.416C215.953 21.832 216.169 22.248 216.377 22.664C216.601 23.064 216.809 23.448 217.001 23.816H217.121C217.489 23.08 217.817 22.4 218.105 21.776C218.393 21.152 218.673 20.52 218.945 19.88C219.233 19.224 219.545 18.512 219.881 17.744C220.121 17.616 220.393 17.52 220.697 17.456C221.001 17.392 221.289 17.36 221.561 17.36C222.057 17.36 222.473 17.488 222.809 17.744C223.145 18 223.313 18.384 223.313 18.896C223.313 19.088 223.241 19.368 223.097 19.736C222.953 20.104 222.705 20.616 222.353 21.272C222.001 21.912 221.529 22.728 220.937 23.72C220.361 24.696 219.625 25.896 218.729 27.32ZM215.273 26H218.873V31.976C218.713 32.024 218.473 32.064 218.153 32.096C217.849 32.144 217.537 32.168 217.217 32.168C216.497 32.168 215.993 32.048 215.705 31.808C215.417 31.552 215.273 31.112 215.273 30.488V26Z" fill="#F0F9FF"/>
<path d="M64.3148 21.008L63.4872 19.1873L62.5702 19.6041L62.3592 20.5889L64.3148 21.008ZM65.0588 20.768L65.5438 22.7083L65.5762 22.7002L65.6082 22.691L65.0588 20.768ZM67.5308 20.888L66.6975 22.7061L66.7113 22.7125L66.7253 22.7186L67.5308 20.888ZM68.2748 21.68L66.3452 22.2062L66.349 22.22L66.353 22.2337L68.2748 21.68ZM69.0188 24.272L70.9418 23.7226L69.0188 24.272ZM69.6668 26.552L67.7422 27.0959L67.7493 27.1211L67.7571 27.1461L69.6668 26.552ZM70.3148 28.832L68.3791 29.3353L68.7683 30.832H70.3148V28.832ZM70.4108 28.832V30.832H72.1017L72.3829 29.1646L70.4108 28.832ZM71.5148 21.416L69.5328 21.1482V21.1482L71.5148 21.416ZM71.9708 17.768L71.0131 16.0122L70.1028 16.5087L69.984 17.5388L71.9708 17.768ZM75.3788 20.288L73.3942 20.0399L73.3915 20.0619L73.3892 20.0839L75.3788 20.288ZM75.0908 22.448L73.1149 22.1381L75.0908 22.448ZM74.6348 24.992L72.6736 24.5998L72.6702 24.617L72.667 24.6342L74.6348 24.992ZM74.1068 27.584L76.0556 28.0337L76.0574 28.0257L74.1068 27.584ZM73.5308 29.864L75.4539 30.4135L75.4572 30.4016L73.5308 29.864ZM72.9788 31.496L74.2707 33.0228L74.6348 32.7146L74.8207 32.2753L72.9788 31.496ZM71.9708 31.976L72.5026 33.904L72.5332 33.8955L72.5636 33.8861L71.9708 31.976ZM68.8508 31.904L68.0861 33.752L68.1136 33.7634L68.1415 33.774L68.8508 31.904ZM68.0108 31.136L69.9264 30.5613L69.9148 30.5224L69.9015 30.484L68.0108 31.136ZM67.4588 29.504L65.5472 30.0922L65.554 30.1144L65.5614 30.1365L67.4588 29.504ZM66.8588 27.464L64.9311 27.9972L64.9341 28.0079L66.8588 27.464ZM66.2348 25.16L68.1679 24.6471L64.2853 24.7132L66.2348 25.16ZM65.6588 27.512L67.5919 28.0249L67.5944 28.0153L65.6588 27.512ZM65.0588 29.72L63.1324 29.1824L65.0588 29.72ZM64.5308 31.496L65.8227 33.0228L66.2588 32.6537L66.4342 32.11L64.5308 31.496ZM63.5708 31.976L64.1589 33.8876L64.1812 33.8807L64.2032 33.8734L63.5708 31.976ZM59.5148 31.136L57.6806 31.9335L57.6935 31.963L57.7073 31.9922L59.5148 31.136ZM58.9388 29.48L57.0111 30.0132L57.018 30.0378L57.0254 30.0623L58.9388 29.48ZM58.2668 26.912L56.3174 27.3594L56.3218 27.3783L56.3265 27.3971L58.2668 26.912ZM57.6188 23.864L59.5811 23.4775L57.6188 23.864ZM57.0428 20.792L55.0726 21.136L55.0735 21.1414L57.0428 20.792ZM56.6348 18.08L55.3429 16.5532L54.5207 17.2489L54.649 18.3183L56.6348 18.08ZM57.4508 17.576L56.6232 15.7553L56.607 15.7626L56.5909 15.7703L57.4508 17.576ZM59.8988 17.696L58.7363 19.3235L58.7625 19.3422L58.7894 19.3601L59.8988 17.696ZM60.5468 18.872L58.5755 19.2099L58.5763 19.2147L60.5468 18.872ZM61.1708 22.664L59.1933 22.9636L59.1956 22.9782L59.198 22.9928L61.1708 22.664ZM61.6028 25.376L59.6246 25.6706L59.6276 25.6911L59.6311 25.7116L61.6028 25.376ZM61.9388 27.344L59.9675 27.6819L59.9692 27.6916L61.9388 27.344ZM62.2268 28.832L60.2712 29.2511L60.6099 30.832H62.2268V28.832ZM62.3468 28.832V30.832H63.9176L64.2898 29.3059L62.3468 28.832ZM62.8028 27.008L64.7398 27.5061L64.7431 27.4931L62.8028 27.008ZM63.2588 25.28L65.1859 25.8153L65.1895 25.8018L63.2588 25.28ZM63.7628 23.384L65.6975 23.8907L65.7004 23.8797L63.7628 23.384ZM65.1424 22.8287C65.1417 22.829 65.1723 22.8154 65.2468 22.7914C65.3188 22.7682 65.4164 22.7401 65.5438 22.7083L64.5737 18.8277C64.2059 18.9197 63.8238 19.0342 63.4872 19.1873L65.1424 22.8287ZM65.6082 22.691C65.7727 22.644 65.9239 22.624 66.0668 22.624V18.624C65.5376 18.624 65.0168 18.7 64.5093 18.845L65.6082 22.691ZM66.0668 22.624C66.479 22.624 66.6578 22.688 66.6975 22.7061L68.3641 19.0699C67.6357 18.736 66.8385 18.624 66.0668 18.624V22.624ZM66.7253 22.7186C66.7288 22.7202 66.6531 22.6875 66.5591 22.5873C66.4576 22.4793 66.3826 22.3432 66.3452 22.2062L70.2043 21.1538C69.9177 20.103 69.1673 19.4231 68.3362 19.0574L66.7253 22.7186ZM66.353 22.2337C66.6246 23.1766 66.8722 24.0391 67.0957 24.8214L70.9418 23.7226C70.7173 22.9369 70.4689 22.0714 70.1966 21.1263L66.353 22.2337ZM67.0957 24.8214C67.3192 25.6037 67.5347 26.3619 67.7422 27.0959L71.5914 26.0081C71.3828 25.2701 71.1663 24.5083 70.9418 23.7226L67.0957 24.8214ZM67.7571 27.1461C67.9709 27.8334 68.1783 28.5629 68.3791 29.3353L72.2504 28.3287C72.0352 27.5011 71.8107 26.7106 71.5765 25.9579L67.7571 27.1461ZM70.3148 30.832H70.4108V26.832H70.3148V30.832ZM72.3829 29.1646C72.6093 27.8227 72.8117 26.5353 72.9901 25.3025L69.0314 24.7295C68.8578 25.9287 68.6603 27.1853 68.4386 28.4993L72.3829 29.1646ZM72.9901 25.3025C73.167 24.0805 73.3359 22.8742 73.4968 21.6838L69.5328 21.1482C69.3736 22.3258 69.2065 23.5196 69.0314 24.7295L72.9901 25.3025ZM73.4968 21.6838C73.6586 20.4864 73.8122 19.2575 73.9576 17.9972L69.984 17.5388C69.8414 18.7745 69.691 19.9776 69.5328 21.1482L73.4968 21.6838ZM72.9285 19.5238C73.1851 19.3838 73.402 19.336 73.6028 19.336V15.336C72.6835 15.336 71.8125 15.5762 71.0131 16.0122L72.9285 19.5238ZM73.6028 19.336C73.7261 19.336 73.8051 19.3491 73.8497 19.3603C73.8718 19.3658 73.8861 19.371 73.8943 19.3744C73.9023 19.3777 73.906 19.3799 73.9069 19.3804L75.9867 15.9636C75.2415 15.51 74.4149 15.336 73.6028 15.336V19.336ZM73.9069 19.3804C73.7747 19.3 73.6453 19.1665 73.5643 19.0011C73.4921 18.8534 73.4988 18.7633 73.4988 18.8H77.4988C77.4988 17.7568 77.092 16.6364 75.9867 15.9636L73.9069 19.3804ZM73.4988 18.8C73.4988 19.0274 73.4709 19.4266 73.3942 20.0399L77.3633 20.5361C77.4467 19.8694 77.4988 19.2766 77.4988 18.8H73.4988ZM73.3892 20.0839C73.3298 20.6635 73.239 21.3469 73.1149 22.1381L77.0666 22.7579C77.1985 21.917 77.2998 21.1605 77.3683 20.4921L73.3892 20.0839ZM73.1149 22.1381C72.9916 22.9243 72.8446 23.7448 72.6736 24.5998L76.5959 25.3842C76.7769 24.4792 76.9339 23.6037 77.0666 22.7579L73.1149 22.1381ZM72.667 24.6342C72.512 25.4869 72.3417 26.323 72.1561 27.1423L76.0574 28.0257C76.2559 27.149 76.4375 26.257 76.6025 25.3498L72.667 24.6342ZM72.158 27.1343C71.9715 27.9423 71.7869 28.6725 71.6044 29.3264L75.4572 30.4016C75.6587 29.6795 75.858 28.8897 76.0556 28.0337L72.158 27.1343ZM71.6077 29.3146C71.4274 29.9457 71.269 30.4044 71.1368 30.7167L74.8207 32.2753C75.0406 31.7556 75.2501 31.1263 75.4538 30.4134L71.6077 29.3146ZM71.6869 29.9692C71.7522 29.9139 71.7759 29.9113 71.7109 29.9423C71.6508 29.9709 71.5445 30.0142 71.378 30.0659L72.5636 33.8861C73.1146 33.7151 73.7557 33.4585 74.2707 33.0228L71.6869 29.9692ZM71.4389 30.048C71.1588 30.1253 70.8505 30.168 70.5068 30.168V34.168C71.1871 34.168 71.8547 34.0827 72.5026 33.904L71.4389 30.048ZM70.5068 30.168C70.0423 30.168 69.7424 30.1032 69.5601 30.034L68.1415 33.774C68.8871 34.0568 69.6912 34.168 70.5068 34.168V30.168ZM69.6155 30.056C69.533 30.0219 69.565 30.0212 69.6423 30.0919C69.7321 30.174 69.8571 30.3303 69.9264 30.5613L66.0951 31.7107C66.4364 32.8484 67.3518 33.4482 68.0861 33.752L69.6155 30.056ZM69.9015 30.484C69.7444 30.0283 69.5626 29.4911 69.3561 28.8715L65.5614 30.1365C65.7709 30.7649 65.9572 31.3157 66.12 31.788L69.9015 30.484ZM69.3703 28.9158C69.1835 28.3088 68.9879 27.6437 68.7834 26.9201L64.9341 28.0079C65.1456 28.7563 65.35 29.4512 65.5472 30.0922L69.3703 28.9158ZM68.7864 26.9308C68.5803 26.1858 68.3742 25.4246 68.1679 24.6471L64.3016 25.6729C64.5114 26.4634 64.7212 27.2382 64.9311 27.9972L68.7864 26.9308ZM64.2853 24.7132C64.1138 25.4614 63.9265 26.2266 63.7231 27.0087L67.5944 28.0153C67.8071 27.1974 68.0037 26.3946 68.1842 25.6068L64.2853 24.7132ZM63.7256 26.9991C63.5195 27.776 63.3218 28.5036 63.1324 29.1824L66.9852 30.2576C67.1797 29.5604 67.382 28.816 67.5919 28.0249L63.7256 26.9991ZM63.1324 29.1824C62.9451 29.8534 62.7768 30.4186 62.6274 30.882L66.4342 32.11C66.6047 31.5814 66.7884 30.9626 66.9852 30.2576L63.1324 29.1824ZM63.2389 29.9692C63.2875 29.9281 63.2995 29.9296 63.2403 29.9591C63.1842 29.9872 63.0875 30.0289 62.9383 30.0786L64.2032 33.8734C64.7364 33.6956 65.3328 33.4373 65.8227 33.0228L63.2389 29.9692ZM62.9826 30.0644C62.7873 30.1245 62.5256 30.168 62.1788 30.168V34.168C62.856 34.168 63.5223 34.0835 64.1589 33.8876L62.9826 30.0644ZM62.1788 30.168C61.7839 30.168 61.4647 30.1062 61.201 30.0073L59.7965 33.7527C60.5568 34.0378 61.3577 34.168 62.1788 34.168V30.168ZM61.201 30.0073C61.0699 29.9582 61.0442 29.9314 61.075 29.9547C61.1116 29.9824 61.2289 30.0828 61.3222 30.2798L57.7073 31.9922C58.1779 32.9858 59.0876 33.4868 59.7965 33.7527L61.201 30.0073ZM61.3489 30.3385C61.2356 30.0779 61.0701 29.6139 60.8521 28.8977L57.0254 30.0623C57.2554 30.8181 57.4739 31.4581 57.6806 31.9335L61.3489 30.3385ZM60.8664 28.9468C60.6638 28.2144 60.444 27.3749 60.2071 26.4269L56.3265 27.3971C56.5695 28.3691 56.7977 29.2416 57.0111 30.0132L60.8664 28.9468ZM60.2161 26.4646C59.9971 25.5103 59.7854 24.5146 59.5811 23.4775L55.6565 24.2505C55.8682 25.3254 56.0885 26.3617 56.3174 27.3594L60.2161 26.4646ZM59.5811 23.4775C59.3753 22.433 59.1857 21.4214 59.012 20.4426L55.0735 21.1414C55.2519 22.1466 55.4462 23.183 55.6565 24.2505L59.5811 23.4775ZM59.013 20.448C58.8415 19.4662 58.7113 18.5984 58.6205 17.8417L54.649 18.3183C54.7502 19.1616 54.892 20.1018 55.0726 21.136L59.013 20.448ZM57.9267 19.6068C57.9653 19.5741 58.0776 19.4927 58.3106 19.3817L56.5909 15.7703C56.1519 15.9793 55.7202 16.2339 55.3429 16.5532L57.9267 19.6068ZM58.2784 19.3967C58.3512 19.3637 58.4503 19.336 58.6028 19.336V15.336C57.9233 15.336 57.2544 15.4683 56.6232 15.7553L58.2784 19.3967ZM58.6028 19.336C58.717 19.336 58.7734 19.3491 58.7875 19.353C58.7979 19.3559 58.7739 19.3504 58.7363 19.3235L61.0612 16.0685C60.3022 15.5264 59.4312 15.336 58.6028 15.336V19.336ZM58.7894 19.3601C58.73 19.3205 58.6794 19.2755 58.6388 19.2302C58.5988 19.1856 58.5743 19.1471 58.5611 19.1232C58.5369 19.0793 58.5555 19.0933 58.5755 19.2099L62.518 18.5341C62.3678 17.6576 61.962 16.6678 61.0082 16.0319L58.7894 19.3601ZM58.5763 19.2147C58.8308 20.6775 59.0362 21.9264 59.1933 22.9636L63.1482 22.3644C62.9854 21.2896 62.7748 20.0105 62.5172 18.5293L58.5763 19.2147ZM59.198 22.9928C59.3728 24.0416 59.5148 24.9336 59.6246 25.6706L63.5809 25.0814C63.4667 24.3144 63.3208 23.3984 63.1436 22.3352L59.198 22.9928ZM59.6311 25.7116C59.7592 26.4641 59.8714 27.1209 59.9675 27.6819L63.91 27.0061C63.8142 26.4471 63.7023 25.7919 63.5744 25.0404L59.6311 25.7116ZM59.9692 27.6916C60.0686 28.2548 60.1692 28.7751 60.2712 29.2511L64.1824 28.4129C64.0924 27.9929 64.0009 27.5212 63.9083 26.9964L59.9692 27.6916ZM62.2268 30.832H62.3468V26.832H62.2268V30.832ZM64.2898 29.3059C64.4482 28.6567 64.5981 28.0568 64.7398 27.5061L60.8658 26.5099C60.7194 27.0792 60.5654 27.6953 60.4037 28.3581L64.2898 29.3059ZM64.7431 27.4931C64.8828 26.934 65.0304 26.3747 65.1858 25.8153L61.3317 24.7447C61.1671 25.3373 61.0107 25.93 60.8625 26.5229L64.7431 27.4931ZM65.1895 25.8018C65.351 25.2042 65.5204 24.5671 65.6975 23.8907L61.828 22.8773C61.6532 23.5449 61.4865 24.1718 61.328 24.7582L65.1895 25.8018ZM65.7004 23.8797C65.8844 23.1602 66.0744 22.3418 66.2704 21.4271L62.3592 20.5889C62.1712 21.4662 61.9931 22.2318 61.8252 22.8883L65.7004 23.8797ZM92.386 28.928L90.648 27.9383L90.6435 27.9463L92.386 28.928ZM89.722 31.52L88.7977 29.7464L88.7873 29.7518L89.722 31.52ZM79.45 28.928L77.7016 29.8993L77.7075 29.9097L79.45 28.928ZM79.474 20.504L81.206 21.5042L81.2119 21.4937L79.474 20.504ZM82.138 17.912L83.0527 19.6906L83.0626 19.6854L83.0726 19.6802L82.138 17.912ZM89.698 17.912L88.7633 19.6802L88.7784 19.6881L88.7935 19.6958L89.698 17.912ZM92.386 20.504L90.648 21.4937L90.654 21.5041L92.386 20.504ZM88.594 21.2L87.0474 22.4682L87.0549 22.4773L87.0625 22.4864L88.594 21.2ZM83.266 21.2L84.7845 22.5016L84.791 22.494L84.7974 22.4864L83.266 21.2ZM83.242 28.256L81.6954 29.5242L81.7092 29.541L81.7234 29.5576L83.242 28.256ZM88.594 28.256L87.0625 26.9696L87.0601 26.9726L88.594 28.256ZM91.37 24.704C91.37 26.1082 91.0937 27.1556 90.648 27.9383L94.1239 29.9177C94.9902 28.3964 95.37 26.6278 95.37 24.704H91.37ZM90.6435 27.9463C90.1901 28.751 89.5835 29.3369 88.7977 29.7464L90.6462 33.2936C92.1324 32.5191 93.3018 31.377 94.1285 29.9097L90.6435 27.9463ZM88.7873 29.7518C87.9895 30.1735 87.0451 30.408 85.906 30.408V34.408C87.6148 34.408 89.2144 34.0505 90.6566 33.2882L88.7873 29.7518ZM85.906 30.408C84.7668 30.408 83.8224 30.1735 83.0246 29.7518L81.1553 33.2882C82.5975 34.0505 84.1971 34.408 85.906 34.408V30.408ZM83.0246 29.7518C82.254 29.3445 81.65 28.7584 81.1925 27.9463L77.7075 29.9097C78.5299 31.3696 79.6859 32.5115 81.1553 33.2882L83.0246 29.7518ZM81.1983 27.9567C80.7612 27.17 80.49 26.1157 80.49 24.704H76.49C76.49 26.6203 76.8587 28.382 77.7016 29.8993L81.1983 27.9567ZM80.49 24.704C80.49 23.2984 80.7667 22.2648 81.2059 21.5041L77.742 19.5039C76.8692 21.0152 76.49 22.7816 76.49 24.704H80.49ZM81.2119 21.4937C81.6865 20.6603 82.2964 20.0795 83.0527 19.6906L81.2233 16.1334C79.7395 16.8965 78.5734 18.0437 77.736 19.5143L81.2119 21.4937ZM83.0726 19.6802C83.8769 19.2551 84.8069 19.024 85.906 19.024V15.024C84.221 15.024 82.639 15.3849 81.2033 16.1438L83.0726 19.6802ZM85.906 19.024C87.0251 19.024 87.9623 19.2568 88.7633 19.6802L90.6326 16.1438C89.1936 15.3832 87.6028 15.024 85.906 15.024V19.024ZM88.7935 19.6958C89.565 20.087 90.1776 20.6677 90.648 21.4937L94.1239 19.5143C93.2823 18.0363 92.1029 16.889 90.6024 16.1282L88.7935 19.6958ZM90.654 21.5041C91.0932 22.2648 91.37 23.2984 91.37 24.704H95.37C95.37 22.7816 94.9907 21.0152 94.1179 19.5038L90.654 21.5041ZM91.602 24.704C91.602 22.9124 91.2143 21.21 90.1254 19.9136L87.0625 22.4864C87.3176 22.79 87.602 23.4236 87.602 24.704H91.602ZM90.1405 19.9318C89.0642 18.6193 87.5743 18 85.906 18V22C86.5096 22 86.8117 22.1807 87.0474 22.4682L90.1405 19.9318ZM85.906 18C84.2552 18 82.8042 18.6402 81.7345 19.9136L84.7974 22.4864C85.0717 22.1598 85.3807 22 85.906 22V18ZM81.7474 19.8984C80.6413 21.1889 80.258 22.9065 80.258 24.704H84.258C84.258 23.3975 84.5466 22.7791 84.7845 22.5016L81.7474 19.8984ZM80.258 24.704C80.258 26.5062 80.6284 28.2229 81.6954 29.5242L84.7885 26.9878C84.5435 26.6891 84.258 26.0378 84.258 24.704H80.258ZM81.7234 29.5576C82.8104 30.8256 84.282 31.432 85.93 31.432V27.432C85.3379 27.432 85.0176 27.2544 84.7605 26.9544L81.7234 29.5576ZM85.93 31.432C87.578 31.432 89.0525 30.8246 90.1278 29.5394L87.0601 26.9726C86.8234 27.2554 86.522 27.432 85.93 27.432V31.432ZM90.1254 29.5424C91.2196 28.2398 91.602 26.5154 91.602 24.704H87.602C87.602 26.0286 87.3124 26.6722 87.0625 26.9696L90.1254 29.5424ZM100.863 24.272H98.8626V26.272H100.863V24.272ZM104.343 23.744L105.525 25.3568L105.534 25.3502L104.343 23.744ZM104.391 20.576L103.148 22.143L103.165 22.1564L103.182 22.1694L104.391 20.576ZM101.511 20.048L101.368 18.0531L101.368 18.0531L101.511 20.048ZM100.863 20.144L100.413 18.1952L98.8626 18.553V20.144H100.863ZM97.2386 27.104H95.2386V29.104H97.2386V27.104ZM97.5026 18.008L98.9169 19.4222L98.9169 19.4222L97.5026 18.008ZM98.1986 17.6L98.8311 19.4974L98.8567 19.4888L98.8821 19.4796L98.1986 17.6ZM100.047 17.192L99.8258 15.2042L99.8208 15.2048L100.047 17.192ZM107.151 18.44L105.866 19.9727L105.873 19.9783L105.879 19.9839L107.151 18.44ZM107.991 24.704L106.343 23.5709L106.337 23.5784L107.991 24.704ZM105.855 26.48L106.697 28.294L106.704 28.2908L106.711 28.2875L105.855 26.48ZM102.087 26.24L101.629 24.2932L98.8577 24.9451L100.41 27.3309L102.087 26.24ZM105.351 25.472L106.975 24.3047L106.194 23.2189L104.893 23.5252L105.351 25.472ZM106.479 26.984L104.897 28.2083L104.909 28.224L104.922 28.2395L106.479 26.984ZM107.607 28.424L106.013 29.6328L106.026 29.6499L106.04 29.6668L107.607 28.424ZM108.591 29.72L106.968 30.8886L106.979 30.9044L106.991 30.92L108.591 29.72ZM109.287 30.704L111.202 31.2787L111.468 30.3934L110.966 29.6175L109.287 30.704ZM108.519 31.832L109.661 33.4738L109.684 33.4574L109.707 33.4404L108.519 31.832ZM105.903 31.832L104.569 33.3225L104.61 33.3593L104.653 33.3937L105.903 31.832ZM105.039 30.776L106.731 29.7104L106.723 29.6977L106.715 29.6851L105.039 30.776ZM97.2386 25.736V23.736H95.2386V25.736H97.2386ZM100.887 25.736H102.887V23.736H100.887V25.736ZM100.887 31.976L101.519 33.8734L102.887 33.4175V31.976H100.887ZM100.191 32.096L99.9916 30.1059L99.9426 30.1108L99.894 30.1181L100.191 32.096ZM97.6706 31.784L96.3419 33.2788L96.3619 33.2966L96.3824 33.3138L97.6706 31.784ZM100.863 26.272H102.423V22.272H100.863V26.272ZM102.423 26.272C103.504 26.272 104.602 26.0342 105.525 25.3568L103.16 22.1312C103.124 22.1578 102.942 22.272 102.423 22.272V26.272ZM105.534 25.3502C106.615 24.5484 107.087 23.3718 107.087 22.136H103.087C103.087 22.1949 103.081 22.228 103.079 22.2403C103.077 22.2517 103.077 22.2448 103.086 22.2262C103.094 22.2069 103.108 22.1853 103.124 22.1656C103.14 22.1462 103.151 22.1375 103.151 22.1378L105.534 25.3502ZM107.087 22.136C107.087 20.9502 106.656 19.7839 105.599 18.9826L103.182 22.1694C103.172 22.1617 103.153 22.1452 103.132 22.1191C103.111 22.0929 103.096 22.0665 103.086 22.0449C103.067 22.0008 103.087 22.0155 103.087 22.136H107.087ZM105.633 19.009C104.655 18.2333 103.406 18.024 102.255 18.024V22.024C102.614 22.024 102.857 22.0592 103.008 22.0984C103.157 22.1369 103.181 22.1692 103.148 22.143L105.633 19.009ZM102.255 18.024C101.945 18.024 101.648 18.0331 101.368 18.0531L101.653 22.0429C101.821 22.0309 102.021 22.024 102.255 22.024V18.024ZM101.368 18.0531C101.046 18.0761 100.727 18.1227 100.413 18.1952L101.312 22.0928C101.414 22.0693 101.527 22.0519 101.653 22.0429L101.368 18.0531ZM98.8626 20.144V24.272H102.863V20.144H98.8626ZM102.759 25.104H97.2386V29.104H102.759V25.104ZM99.2386 27.104V18.728H95.2386V27.104H99.2386ZM99.2386 18.728C99.2386 18.7675 99.233 18.8706 99.1824 19.0085C99.1292 19.1536 99.0399 19.2992 98.9169 19.4222L96.0884 16.5938C95.4574 17.2248 95.2386 18.0185 95.2386 18.728H99.2386ZM98.9169 19.4222C98.8303 19.5088 98.7739 19.5164 98.8311 19.4974L97.5662 15.7026C97.0473 15.8756 96.527 16.1552 96.0884 16.5938L98.9169 19.4222ZM98.8821 19.4796C99.2298 19.3531 99.6861 19.2458 100.272 19.1792L99.8208 15.2048C98.9991 15.2982 98.2234 15.4629 97.5152 15.7204L98.8821 19.4796ZM100.268 19.1798C100.91 19.1084 101.58 19.072 102.279 19.072V15.072C101.441 15.072 100.623 15.1156 99.8258 15.2042L100.268 19.1798ZM102.279 19.072C104.204 19.072 105.284 19.4852 105.866 19.9727L108.435 16.9073C106.841 15.5708 104.674 15.072 102.279 15.072V19.072ZM105.879 19.9839C106.455 20.4584 106.783 21.0891 106.783 22.112H110.783C110.783 20.0309 110.022 18.2136 108.422 16.8961L105.879 19.9839ZM106.783 22.112C106.783 22.6803 106.634 23.1468 106.343 23.5709L109.639 25.8371C110.403 24.7252 110.783 23.4637 110.783 22.112H106.783ZM106.337 23.5784C106.047 24.0049 105.625 24.3758 104.998 24.6725L106.711 28.2875C107.908 27.7202 108.91 26.9071 109.644 25.8296L106.337 23.5784ZM105.012 24.666C104.424 24.9391 103.688 25.104 102.759 25.104V29.104C104.165 29.104 105.493 28.8529 106.697 28.294L105.012 24.666ZM102.545 28.1868L105.809 27.4188L104.893 23.5252L101.629 24.2932L102.545 28.1868ZM103.727 26.6393C104.108 27.1704 104.499 27.6935 104.897 28.2083L108.06 25.7597C107.691 25.2825 107.329 24.7976 106.975 24.3047L103.727 26.6393ZM104.922 28.2395C105.311 28.7215 105.674 29.1859 106.013 29.6328L109.2 27.2152C108.835 26.7341 108.447 26.2385 108.035 25.7285L104.922 28.2395ZM106.04 29.6668C106.392 30.1112 106.701 30.5182 106.968 30.8886L110.214 28.5514C109.904 28.1218 109.557 27.6648 109.174 27.1812L106.04 29.6668ZM106.991 30.92C107.263 31.2828 107.465 31.5708 107.608 31.7905L110.966 29.6175C110.756 29.2932 110.495 28.9252 110.191 28.52L106.991 30.92ZM107.371 30.1293C107.352 30.1931 107.335 30.2178 107.333 30.2204C107.332 30.2224 107.332 30.2222 107.333 30.2212C107.334 30.2202 107.333 30.221 107.33 30.2236L109.707 33.4404C110.456 32.8867 110.947 32.1311 111.202 31.2787L107.371 30.1293ZM107.377 30.1902C107.357 30.2038 107.347 30.207 107.342 30.2084C107.337 30.2101 107.316 30.216 107.271 30.216V34.216C108.128 34.216 108.945 33.9716 109.661 33.4738L107.377 30.1902ZM107.271 30.216C107.114 30.216 107.04 30.1985 107.025 30.1944C107.016 30.1917 107.072 30.2066 107.152 30.2703L104.653 33.3937C105.456 34.0356 106.421 34.216 107.271 34.216V30.216ZM107.236 30.3415C107.101 30.2203 106.928 30.0225 106.731 29.7104L103.346 31.8416C103.694 32.3935 104.097 32.8997 104.569 33.3225L107.236 30.3415ZM106.715 29.6851L103.763 25.1491L100.41 27.3309L103.362 31.8669L106.715 29.6851ZM97.2386 27.736H100.887V23.736H97.2386V27.736ZM98.8866 25.736V31.976H102.887V25.736H98.8866ZM100.254 30.0786C100.289 30.0669 100.309 30.0625 100.306 30.0631C100.305 30.0634 100.292 30.0664 100.265 30.0711C100.209 30.0807 100.12 30.0931 99.9916 30.1059L100.39 34.0861C100.731 34.0519 101.151 33.9961 101.519 33.8734L100.254 30.0786ZM99.894 30.1181C99.6758 30.1508 99.4471 30.168 99.2066 30.168V34.168C99.6382 34.168 100.065 34.1372 100.487 34.0739L99.894 30.1181ZM99.2066 30.168C98.9553 30.168 98.8195 30.1446 98.7677 30.1317C98.7146 30.1184 98.8145 30.1326 98.9589 30.2542L96.3824 33.3138C97.2417 34.0375 98.3555 34.168 99.2066 34.168V30.168ZM98.9994 30.2892C99.176 30.4462 99.2374 30.6027 99.2507 30.644C99.2605 30.6745 99.2386 30.6217 99.2386 30.44H95.2386C95.2386 31.2871 95.4147 32.4547 96.3419 33.2788L98.9994 30.2892ZM99.2386 30.44V25.736H95.2386V30.44H99.2386ZM112.923 21.896V19.896H110.923V21.896H112.923ZM116.571 21.896H118.571V19.896H116.571V21.896ZM116.571 31.856L116.795 33.8434L118.571 33.6433V31.856H116.571ZM114.867 32.048V34.048H114.979L115.091 34.0354L114.867 32.048ZM113.451 31.52L112.037 32.9342L113.451 31.52ZM114.867 32.048H112.867V34.048H114.867V32.048ZM114.867 29.072V27.072H112.867V29.072H114.867ZM122.403 29.072L124.041 27.9251L123.444 27.072H122.403V29.072ZM122.691 29.696L120.782 30.2925L120.788 30.3106L120.794 30.3285L122.691 29.696ZM122.475 31.664L123.98 32.981L122.475 31.664ZM116.571 26.456V28.456H118.571V26.456H116.571ZM112.923 26.456H110.923V28.456H112.923V26.456ZM112.923 17.408L112.531 15.4468L110.923 15.7684V17.408H112.923ZM113.643 17.288L113.36 15.3081L113.346 15.3101L113.643 17.288ZM116.115 17.576L114.876 19.1458V19.1458L116.115 17.576ZM112.923 23.896H116.571V19.896H112.923V23.896ZM114.571 21.896V31.856H118.571V21.896H114.571ZM116.347 29.8686L114.643 30.0606L115.091 34.0354L116.795 33.8434L116.347 29.8686ZM114.867 30.048C114.769 30.048 114.745 30.0335 114.768 30.042C114.779 30.0462 114.796 30.0542 114.817 30.0671C114.837 30.08 114.853 30.0939 114.865 30.1058L112.037 32.9342C112.834 33.7312 113.852 34.048 114.867 34.048V30.048ZM114.865 30.1058C114.877 30.1177 114.891 30.1343 114.904 30.1545C114.917 30.1746 114.925 30.192 114.929 30.2032C114.938 30.2262 114.923 30.2024 114.923 30.104H110.923C110.923 31.1187 111.24 32.1373 112.037 32.9342L114.865 30.1058ZM114.923 30.104V21.896H110.923V30.104H114.923ZM116.867 32.048V29.072H112.867V32.048H116.867ZM114.867 31.072H122.403V27.072H114.867V31.072ZM120.765 30.2189C120.742 30.1865 120.737 30.1721 120.743 30.1861C120.749 30.1998 120.764 30.2335 120.782 30.2925L124.6 29.0995C124.48 28.715 124.306 28.3032 124.041 27.9251L120.765 30.2189ZM120.794 30.3285C120.794 30.3282 120.811 30.381 120.811 30.512H124.811C124.811 30.035 124.748 29.5438 124.588 29.0635L120.794 30.3285ZM120.811 30.512C120.811 30.6286 120.798 30.6565 120.807 30.624C120.818 30.5852 120.859 30.4734 120.97 30.347L123.98 32.981C124.651 32.2148 124.811 31.2716 124.811 30.512H120.811ZM120.97 30.347C121.06 30.2439 121.181 30.1563 121.314 30.1017C121.439 30.0503 121.526 30.048 121.539 30.048V34.048C122.404 34.048 123.309 33.7486 123.98 32.981L120.97 30.347ZM121.539 30.048H114.867V34.048H121.539V30.048ZM116.571 24.456H112.923V28.456H116.571V24.456ZM114.923 26.456V17.408H110.923V26.456H114.923ZM113.315 19.3692C113.426 19.347 113.627 19.3128 113.94 19.2659L113.346 15.3101C113.019 15.3592 112.74 15.405 112.531 15.4468L113.315 19.3692ZM113.926 19.2679C114.179 19.2318 114.404 19.216 114.603 19.216V15.216C114.194 15.216 113.779 15.2482 113.36 15.3081L113.926 19.2679ZM114.603 19.216C114.851 19.216 114.989 19.238 115.046 19.2516C115.106 19.2659 115.015 19.256 114.876 19.1458L117.354 16.0062C116.507 15.3376 115.433 15.216 114.603 15.216V19.216ZM114.876 19.1458C114.655 18.9717 114.577 18.783 114.56 18.7305C114.547 18.6912 114.571 18.7442 114.571 18.944H118.571C118.571 18.0938 118.399 16.8309 117.354 16.0062L114.876 19.1458ZM114.571 18.944V26.456H118.571V18.944H114.571ZM134.685 28.208L133.257 26.8084L133.249 26.816L133.242 26.8235L134.685 28.208ZM130.797 29.36L130.588 31.349L130.64 31.3545L130.692 31.3572L130.797 29.36ZM129.981 29.24H127.981V30.8796L129.589 31.2012L129.981 29.24ZM129.981 20.144L129.748 18.1577L127.981 18.3655V20.144H129.981ZM130.773 20.072L130.898 22.0681L130.953 22.0647L131.007 22.0583L130.773 20.072ZM133.797 20.552L132.815 22.294L132.841 22.3088L132.868 22.3228L133.797 20.552ZM135.285 22.088L133.505 22.999L133.513 23.0152L133.522 23.0313L135.285 22.088ZM138.573 20.408L140.278 19.3612V19.3612L138.573 20.408ZM135.693 17.912L134.857 19.7286L134.871 19.7352L134.886 19.7416L135.693 17.912ZM127.317 17.576L126.699 15.6739L126.645 15.6914L126.593 15.712L127.317 17.576ZM126.621 18.008L127.967 19.4879L128.002 19.4559L128.036 19.4222L126.621 18.008ZM127.605 31.808L126.919 33.6866L126.93 33.6904L127.605 31.808ZM129.693 32.24L129.901 30.2508L129.88 30.2486L129.859 30.2469L129.693 32.24ZM135.813 31.52L136.669 33.328L136.679 33.323L135.813 31.52ZM138.597 28.952L136.876 27.9337L136.871 27.9428L136.865 27.9519L138.597 28.952ZM133.837 24.728C133.837 25.9523 133.533 26.5262 133.257 26.8084L136.114 29.6076C137.374 28.3218 137.837 26.5757 137.837 24.728H133.837ZM133.242 26.8235C132.929 27.1495 132.477 27.384 131.661 27.384V31.384C133.373 31.384 134.937 30.8345 136.129 29.5924L133.242 26.8235ZM131.661 27.384C131.428 27.384 131.176 27.3771 130.903 27.3628L130.692 31.3572C131.027 31.3749 131.351 31.384 131.661 31.384V27.384ZM131.007 27.371C130.75 27.3439 130.54 27.3122 130.374 27.2788L129.589 31.2012C129.902 31.2638 130.237 31.3121 130.588 31.349L131.007 27.371ZM131.981 29.24V20.144H127.981V29.24H131.981ZM130.215 22.1303C130.453 22.1023 130.681 22.0817 130.898 22.0681L130.649 18.0759C130.354 18.0943 130.054 18.1217 129.748 18.1577L130.215 22.1303ZM131.007 22.0583C131.198 22.0359 131.4 22.024 131.613 22.024V18.024C131.251 18.024 130.893 18.0441 130.54 18.0857L131.007 22.0583ZM131.613 22.024C132.157 22.024 132.536 22.1367 132.815 22.294L134.78 18.81C133.811 18.2633 132.734 18.024 131.613 18.024V22.024ZM132.868 22.3228C133.116 22.4533 133.327 22.6517 133.505 22.999L137.066 21.177C136.54 20.1483 135.758 19.3227 134.727 18.7812L132.868 22.3228ZM133.522 23.0313C133.687 23.341 133.837 23.8681 133.837 24.728H137.837C137.837 23.4439 137.619 22.211 137.049 21.1447L133.522 23.0313ZM141.605 24.656C141.605 22.684 141.209 20.8779 140.278 19.3612L136.869 21.4548C137.314 22.1781 137.605 23.204 137.605 24.656H141.605ZM140.278 19.3612C139.372 17.8864 138.095 16.7861 136.501 16.0824L134.886 19.7416C135.756 20.1259 136.399 20.6896 136.869 21.4548L140.278 19.3612ZM136.53 16.0954C134.998 15.39 133.269 15.072 131.397 15.072V19.072C132.822 19.072 133.956 19.314 134.857 19.7286L136.53 16.0954ZM131.397 15.072C130.721 15.072 129.99 15.1075 129.208 15.1755L129.555 19.1605C130.245 19.1005 130.858 19.072 131.397 19.072V15.072ZM129.208 15.1755C128.335 15.2514 127.497 15.4147 126.699 15.6739L127.936 19.4781C128.418 19.3213 128.955 19.2126 129.555 19.1605L129.208 15.1755ZM126.593 15.712C126.107 15.9009 125.621 16.1804 125.207 16.5938L128.036 19.4222C128.005 19.4526 127.984 19.4661 127.982 19.4673C127.981 19.4681 127.998 19.4571 128.042 19.44L126.593 15.712ZM125.276 16.5281C124.553 17.1853 124.357 18.048 124.357 18.728H128.357C128.357 18.7461 128.355 18.8483 128.301 18.9965C128.243 19.1562 128.135 19.3349 127.967 19.4879L125.276 16.5281ZM124.357 18.728V30.2H128.357V18.728H124.357ZM124.357 30.2C124.357 30.9665 124.574 31.7397 125.089 32.4042C125.589 33.0474 126.256 33.4442 126.919 33.6865L128.292 29.9295C128.123 29.8678 128.166 29.8446 128.249 29.9518C128.291 30.0048 128.322 30.066 128.341 30.1246C128.359 30.1805 128.357 30.2106 128.357 30.2H124.357ZM126.93 33.6904C127.742 33.982 128.613 34.1569 129.527 34.2331L129.859 30.2469C129.238 30.1951 128.717 30.082 128.281 29.9256L126.93 33.6904ZM129.486 34.2292C130.295 34.3135 131.017 34.36 131.637 34.36V30.36C131.202 30.36 130.628 30.3265 129.901 30.2508L129.486 34.2292ZM131.637 34.36C133.469 34.36 135.165 34.0393 136.669 33.328L134.958 29.712C134.094 30.1207 133.006 30.36 131.637 30.36V34.36ZM136.679 33.323C138.236 32.5755 139.469 31.4424 140.329 29.9521L136.865 27.9519C136.414 28.7336 135.791 29.3125 134.948 29.717L136.679 33.323ZM140.319 29.9703C141.221 28.4446 141.605 26.6342 141.605 24.656H137.605C137.605 26.1338 137.318 27.1874 136.876 27.9337L140.319 29.9703ZM153.1 24.44H151.1V26.44H153.1V24.44ZM156.46 23.864L155.211 22.3023L155.198 22.3126L155.185 22.3232L156.46 23.864ZM153.772 20.048L153.639 18.0524L153.63 18.0531L153.772 20.048ZM153.1 20.12L152.817 18.1401L151.1 18.3854V20.12H153.1ZM149.476 27.32H147.476V29.32H149.476V27.32ZM149.74 18.008L151.154 19.4222L151.154 19.4222L149.74 18.008ZM150.436 17.6L151.069 19.4974L151.094 19.4888L151.12 19.4796L150.436 17.6ZM159.22 18.464L157.933 19.995L157.945 20.005L157.957 20.0149L159.22 18.464ZM160.156 24.896L158.476 23.8109L158.468 23.8234L158.46 23.836L160.156 24.896ZM158.068 26.696L158.898 28.5156L158.911 28.5097L158.924 28.5035L158.068 26.696ZM149.476 25.712V23.712H147.476V25.712H149.476ZM153.124 25.712H155.124V23.712H153.124V25.712ZM153.124 31.976L153.757 33.8734L155.124 33.4175V31.976H153.124ZM152.428 32.096L152.229 30.1059L152.18 30.1108L152.131 30.1181L152.428 32.096ZM149.908 31.784L148.579 33.2788L148.599 33.2966L148.62 33.3138L149.908 31.784ZM153.1 26.44H154.54V22.44H153.1V26.44ZM154.54 26.44C155.657 26.44 156.803 26.1761 157.735 25.4048L155.185 22.3232C155.181 22.3269 155.149 22.3528 155.057 22.3803C154.96 22.4097 154.795 22.44 154.54 22.44V26.44ZM157.71 25.4257C158.748 24.5949 159.18 23.419 159.18 22.208H155.18C155.18 22.3465 155.157 22.3845 155.166 22.3645C155.17 22.3552 155.178 22.3405 155.19 22.3251C155.195 22.3179 155.201 22.3122 155.205 22.308C155.209 22.3038 155.211 22.302 155.211 22.3023L157.71 25.4257ZM159.18 22.208C159.18 21.0478 158.798 19.8687 157.778 19.0305L155.239 22.1215C155.226 22.1108 155.209 22.0938 155.192 22.0714C155.176 22.0491 155.166 22.0305 155.163 22.0215C155.156 22.0044 155.18 22.0524 155.18 22.208H159.18ZM157.778 19.0305C156.839 18.2593 155.667 18.024 154.564 18.024V22.024C155.157 22.024 155.282 22.1567 155.239 22.1215L157.778 19.0305ZM154.564 18.024C154.24 18.024 153.931 18.033 153.639 18.0524L153.905 22.0436C154.093 22.031 154.312 22.024 154.564 22.024V18.024ZM153.63 18.0531C153.358 18.0725 153.088 18.1015 152.817 18.1401L153.383 22.0999C153.561 22.0745 153.738 22.0555 153.915 22.0429L153.63 18.0531ZM151.1 20.12V24.44H155.1V20.12H151.1ZM154.78 25.32H149.476V29.32H154.78V25.32ZM151.476 27.32V18.728H147.476V27.32H151.476ZM151.476 18.728C151.476 18.7675 151.47 18.8706 151.42 19.0085C151.367 19.1536 151.277 19.2992 151.154 19.4222L148.326 16.5938C147.695 17.2248 147.476 18.0185 147.476 18.728H151.476ZM151.154 19.4222C151.068 19.5088 151.011 19.5164 151.069 19.4974L149.804 15.7026C149.285 15.8756 148.764 16.1552 148.326 16.5938L151.154 19.4222ZM151.12 19.4796C151.458 19.3566 151.925 19.2481 152.548 19.1803L152.116 15.2037C151.268 15.2959 150.47 15.4594 149.753 15.7204L151.12 19.4796ZM152.548 19.1803C153.229 19.1063 153.82 19.072 154.324 19.072V15.072C153.645 15.072 152.907 15.1177 152.116 15.2037L152.548 19.1803ZM154.324 19.072C156.239 19.072 157.331 19.489 157.933 19.995L160.507 16.933C158.901 15.583 156.729 15.072 154.324 15.072V19.072ZM157.957 20.0149C158.562 20.5072 158.9 21.1593 158.9 22.208H162.9C162.9 20.0887 162.118 18.2448 160.483 16.9131L157.957 20.0149ZM158.9 22.208C158.9 22.8948 158.739 23.4042 158.476 23.8109L161.836 25.9811C162.566 24.8518 162.9 23.5692 162.9 22.208H158.9ZM158.46 23.836C158.206 24.2434 157.819 24.6009 157.212 24.8885L158.924 28.5035C160.141 27.9271 161.147 27.0846 161.852 25.956L158.46 23.836ZM157.238 24.8764C156.648 25.1454 155.85 25.32 154.78 25.32V29.32C156.27 29.32 157.664 29.0786 158.898 28.5156L157.238 24.8764ZM149.476 27.712H153.124V23.712H149.476V27.712ZM151.124 25.712V31.976H155.124V25.712H151.124ZM152.492 30.0786C152.527 30.0669 152.546 30.0625 152.544 30.0631C152.543 30.0634 152.53 30.0664 152.502 30.0711C152.446 30.0807 152.358 30.0931 152.229 30.1059L152.627 34.0861C152.969 34.0519 153.389 33.9961 153.757 33.8734L152.492 30.0786ZM152.131 30.1181C151.913 30.1508 151.685 30.168 151.444 30.168V34.168C151.876 34.168 152.303 34.1372 152.725 34.0739L152.131 30.1181ZM151.444 30.168C151.193 30.168 151.057 30.1446 151.005 30.1317C150.952 30.1184 151.052 30.1326 151.196 30.2542L148.62 33.3138C149.479 34.0375 150.593 34.168 151.444 34.168V30.168ZM151.237 30.2892C151.413 30.4462 151.475 30.6027 151.488 30.644C151.498 30.6745 151.476 30.6217 151.476 30.44H147.476C147.476 31.2871 147.652 32.4547 148.579 33.2788L151.237 30.2892ZM151.476 30.44V25.712H147.476V30.44H151.476ZM167.383 31.712L166.464 33.4884L166.483 33.4979L166.501 33.5069L167.383 31.712ZM165.223 29.72L163.497 30.7298L163.504 30.7418L163.511 30.7537L165.223 29.72ZM164.479 25.16V23.16H162.479V25.16H164.479ZM168.151 25.16H170.151V23.16H168.151V25.16ZM168.871 28.712L167.434 30.1028L167.457 30.1264L167.48 30.1492L168.871 28.712ZM172.639 28.712L174.053 30.1262L172.639 28.712ZM173.383 25.16V23.16H171.383V25.16H173.383ZM177.055 25.16H179.055V23.16H177.055V25.16ZM176.311 29.72L178.038 30.7298V30.7298L176.311 29.72ZM174.151 31.712L175.033 33.5069L175.046 33.5009L175.058 33.4948L174.151 31.712ZM168.151 25.88V27.88H170.151V25.88H168.151ZM164.479 25.88H162.479V27.88H164.479V25.88ZM164.479 17.408L164.121 15.4403L162.479 15.7388V17.408H164.479ZM165.223 17.288L165.52 19.2659L165.223 17.288ZM167.671 17.576L166.432 19.1458L166.451 19.1611L166.471 19.176L167.671 17.576ZM177.055 25.928V27.928H179.055V25.928H177.055ZM173.383 25.928H171.383V27.928H173.383V25.928ZM173.383 17.408L173.025 15.4403L171.383 15.7388V17.408H173.383ZM174.127 17.288L173.844 15.3081L173.83 15.3101L174.127 17.288ZM176.575 17.576L175.336 19.1458L175.355 19.1611L175.375 19.176L176.575 17.576ZM170.767 30.408C169.687 30.408 168.875 30.217 168.265 29.9171L166.501 33.5069C167.779 34.135 169.223 34.408 170.767 34.408V30.408ZM168.302 29.9356C167.683 29.6155 167.246 29.2006 166.935 28.6863L163.511 30.7537C164.224 31.9354 165.227 32.8485 166.464 33.4884L168.302 29.9356ZM166.95 28.7102C166.659 28.2137 166.479 27.5813 166.479 26.744H162.479C162.479 28.1787 162.795 29.5303 163.497 30.7298L166.95 28.7102ZM166.479 26.744V25.16H162.479V26.744H166.479ZM164.479 27.16H168.151V23.16H164.479V27.16ZM166.151 25.16V26.648H170.151V25.16H166.151ZM166.151 26.648C166.151 27.8981 166.501 29.139 167.434 30.1028L170.308 27.3212C170.281 27.293 170.151 27.1579 170.151 26.648H166.151ZM167.48 30.1492C168.393 31.0322 169.544 31.432 170.767 31.432V27.432C170.455 27.432 170.342 27.3518 170.262 27.2748L167.48 30.1492ZM170.767 31.432C171.99 31.432 173.148 31.0318 174.053 30.1262L171.225 27.2978C171.17 27.3522 171.081 27.432 170.767 27.432V31.432ZM174.053 30.1262C175.014 29.1652 175.383 27.916 175.383 26.648H171.383C171.383 27.14 171.256 27.2668 171.225 27.2978L174.053 30.1262ZM175.383 26.648V25.16H171.383V26.648H175.383ZM173.383 27.16H177.055V23.16H173.383V27.16ZM175.055 25.16V26.744H179.055V25.16H175.055ZM175.055 26.744C175.055 27.5813 174.875 28.2137 174.585 28.7102L178.038 30.7298C178.739 29.5303 179.055 28.1787 179.055 26.744H175.055ZM174.585 28.7102C174.298 29.2014 173.875 29.6089 173.245 29.9292L175.058 33.4948C176.316 32.8551 177.333 31.9346 178.038 30.7298L174.585 28.7102ZM173.269 29.9171C172.659 30.217 171.847 30.408 170.767 30.408V34.408C172.311 34.408 173.755 34.135 175.033 33.5069L173.269 29.9171ZM168.151 23.88H164.479V27.88H168.151V23.88ZM166.479 25.88V17.408H162.479V25.88H166.479ZM164.837 19.3757C164.983 19.3493 165.207 19.3128 165.52 19.2659L164.926 15.3101C164.6 15.3592 164.328 15.4027 164.121 15.4403L164.837 19.3757ZM165.52 19.2659C165.743 19.2324 165.964 19.216 166.183 19.216V15.216C165.763 15.216 165.344 15.2476 164.926 15.3101L165.52 19.2659ZM166.183 19.216C166.42 19.216 166.55 19.2375 166.601 19.2499C166.654 19.2627 166.566 19.2517 166.432 19.1458L168.91 16.0062C168.069 15.3421 167.01 15.216 166.183 15.216V19.216ZM166.471 19.176C166.253 19.0127 166.167 18.8271 166.144 18.7602C166.126 18.7102 166.151 18.7521 166.151 18.944H170.151C170.151 18.0651 169.957 16.7904 168.871 15.976L166.471 19.176ZM166.151 18.944V25.88H170.151V18.944H166.151ZM177.055 23.928H173.383V27.928H177.055V23.928ZM175.383 25.928V17.408H171.383V25.928H175.383ZM173.741 19.3757C173.887 19.3493 174.111 19.3128 174.424 19.2659L173.83 15.3101C173.504 15.3592 173.232 15.4027 173.025 15.4403L173.741 19.3757ZM174.41 19.2679C174.663 19.2318 174.888 19.216 175.087 19.216V15.216C174.678 15.216 174.263 15.2482 173.844 15.3081L174.41 19.2679ZM175.087 19.216C175.324 19.216 175.454 19.2375 175.505 19.2499C175.558 19.2627 175.47 19.2517 175.336 19.1458L177.814 16.0062C176.973 15.3421 175.914 15.216 175.087 15.216V19.216ZM175.375 19.176C175.157 19.0127 175.071 18.8271 175.048 18.7602C175.03 18.7102 175.055 18.7521 175.055 18.944H179.055C179.055 18.0651 178.861 16.7904 177.775 15.976L175.375 19.176ZM175.055 18.944V25.928H179.055V18.944H175.055ZM185.219 24.44H183.219V26.44H185.219V24.44ZM188.579 23.864L187.329 22.3023L187.317 22.3126L187.304 22.3232L188.579 23.864ZM185.891 20.048L185.758 18.0524L185.748 18.0531L185.891 20.048ZM185.219 20.12L184.936 18.1401L183.219 18.3854V20.12H185.219ZM181.595 27.32H179.595V29.32H181.595V27.32ZM181.859 18.008L183.273 19.4222L183.273 19.4222L181.859 18.008ZM182.555 17.6L183.187 19.4974L183.213 19.4888L183.238 19.4796L182.555 17.6ZM191.339 18.464L190.052 19.995L190.064 20.005L190.076 20.0149L191.339 18.464ZM192.275 24.896L190.595 23.8109L190.587 23.8234L190.579 23.836L192.275 24.896ZM190.187 26.696L191.017 28.5156L191.03 28.5097L191.043 28.5035L190.187 26.696ZM181.595 25.712V23.712H179.595V25.712H181.595ZM185.243 25.712H187.243V23.712H185.243V25.712ZM185.243 31.976L185.875 33.8734L187.243 33.4175V31.976H185.243ZM184.547 32.096L184.348 30.1059L184.299 30.1108L184.25 30.1181L184.547 32.096ZM182.027 31.784L180.698 33.2788L180.718 33.2966L180.739 33.3138L182.027 31.784ZM185.219 26.44H186.659V22.44H185.219V26.44ZM186.659 26.44C187.775 26.44 188.922 26.1761 189.854 25.4048L187.304 22.3232C187.299 22.3269 187.268 22.3528 187.176 22.3803C187.078 22.4097 186.914 22.44 186.659 22.44V26.44ZM189.828 25.4257C190.867 24.5949 191.299 23.419 191.299 22.208H187.299C187.299 22.3465 187.276 22.3845 187.285 22.3645C187.289 22.3552 187.297 22.3405 187.309 22.3251C187.314 22.3179 187.319 22.3122 187.323 22.308C187.328 22.3038 187.33 22.302 187.329 22.3023L189.828 25.4257ZM191.299 22.208C191.299 21.0478 190.917 19.8687 189.896 19.0305L187.357 22.1215C187.344 22.1108 187.327 22.0938 187.311 22.0714C187.294 22.0491 187.285 22.0305 187.282 22.0215C187.275 22.0044 187.299 22.0524 187.299 22.208H191.299ZM189.896 19.0305C188.957 18.2593 187.786 18.024 186.683 18.024V22.024C187.276 22.024 187.4 22.1567 187.357 22.1215L189.896 19.0305ZM186.683 18.024C186.359 18.024 186.05 18.033 185.758 18.0524L186.024 22.0436C186.212 22.031 186.431 22.024 186.683 22.024V18.024ZM185.748 18.0531C185.477 18.0725 185.206 18.1015 184.936 18.1401L185.502 22.0999C185.679 22.0745 185.857 22.0555 186.033 22.0429L185.748 18.0531ZM183.219 20.12V24.44H187.219V20.12H183.219ZM186.899 25.32H181.595V29.32H186.899V25.32ZM183.595 27.32V18.728H179.595V27.32H183.595ZM183.595 18.728C183.595 18.7675 183.589 18.8706 183.539 19.0085C183.485 19.1536 183.396 19.2992 183.273 19.4222L180.445 16.5938C179.814 17.2248 179.595 18.0185 179.595 18.728H183.595ZM183.273 19.4222C183.187 19.5088 183.13 19.5164 183.187 19.4974L181.922 15.7026C181.404 15.8756 180.883 16.1552 180.445 16.5938L183.273 19.4222ZM183.238 19.4796C183.577 19.3566 184.043 19.2481 184.667 19.1803L184.235 15.2037C183.386 15.2959 182.589 15.4594 181.871 15.7204L183.238 19.4796ZM184.667 19.1803C185.348 19.1063 185.938 19.072 186.443 19.072V15.072C185.763 15.072 185.026 15.1177 184.235 15.2037L184.667 19.1803ZM186.443 19.072C188.358 19.072 189.45 19.489 190.052 19.995L192.626 16.933C191.02 15.583 188.848 15.072 186.443 15.072V19.072ZM190.076 20.0149C190.681 20.5072 191.019 21.1593 191.019 22.208H195.019C195.019 20.0887 194.237 18.2448 192.602 16.9131L190.076 20.0149ZM191.019 22.208C191.019 22.8948 190.858 23.4042 190.595 23.8109L193.955 25.9811C194.684 24.8518 195.019 23.5692 195.019 22.208H191.019ZM190.579 23.836C190.324 24.2434 189.938 24.6009 189.331 24.8885L191.043 28.5035C192.26 27.9271 193.266 27.0846 193.971 25.956L190.579 23.836ZM189.357 24.8764C188.767 25.1454 187.969 25.32 186.899 25.32V29.32C188.389 29.32 189.783 29.0786 191.017 28.5156L189.357 24.8764ZM181.595 27.712H185.243V23.712H181.595V27.712ZM183.243 25.712V31.976H187.243V25.712H183.243ZM184.61 30.0786C184.646 30.0669 184.665 30.0625 184.663 30.0631C184.661 30.0634 184.648 30.0664 184.621 30.0711C184.565 30.0807 184.476 30.0931 184.348 30.1059L184.746 34.0861C185.088 34.0519 185.507 33.9961 185.875 33.8734L184.61 30.0786ZM184.25 30.1181C184.032 30.1508 183.803 30.168 183.563 30.168V34.168C183.994 34.168 184.422 34.1372 184.844 34.0739L184.25 30.1181ZM183.563 30.168C183.312 30.168 183.176 30.1446 183.124 30.1317C183.071 30.1184 183.171 30.1326 183.315 30.2542L180.739 33.3138C181.598 34.0375 182.712 34.168 183.563 34.168V30.168ZM183.356 30.2892C183.532 30.4462 183.594 30.6027 183.607 30.644C183.617 30.6745 183.595 30.6217 183.595 30.44H179.595C179.595 31.2871 179.771 32.4547 180.698 33.2788L183.356 30.2892ZM183.595 30.44V25.712H179.595V30.44H183.595ZM200.294 24.44H198.294V26.44H200.294V24.44ZM203.654 23.864L202.405 22.3023L202.392 22.3126L202.379 22.3232L203.654 23.864ZM200.966 20.048L200.833 18.0524L200.823 18.0531L200.966 20.048ZM200.294 20.12L200.011 18.1401L198.294 18.3854V20.12H200.294ZM196.67 27.32H194.67V29.32H196.67V27.32ZM196.934 18.008L198.348 19.4222V19.4222L196.934 18.008ZM197.63 17.6L198.262 19.4974L198.288 19.4888L198.313 19.4796L197.63 17.6ZM206.414 18.464L205.127 19.995L205.139 20.005L205.151 20.0149L206.414 18.464ZM207.35 24.896L205.67 23.8109L205.662 23.8234L205.654 23.836L207.35 24.896ZM205.262 26.696L206.092 28.5156L206.105 28.5097L206.118 28.5035L205.262 26.696ZM196.67 25.712V23.712H194.67V25.712H196.67ZM200.318 25.712H202.318V23.712H200.318V25.712ZM200.318 31.976L200.95 33.8734L202.318 33.4175V31.976H200.318ZM199.622 32.096L199.423 30.1059L199.374 30.1108L199.325 30.1181L199.622 32.096ZM197.102 31.784L195.773 33.2788L195.793 33.2966L195.814 33.3138L197.102 31.784ZM200.294 26.44H201.734V22.44H200.294V26.44ZM201.734 26.44C202.85 26.44 203.997 26.1761 204.929 25.4048L202.379 22.3232C202.374 22.3269 202.343 22.3528 202.251 22.3803C202.153 22.4097 201.989 22.44 201.734 22.44V26.44ZM204.903 25.4257C205.942 24.5949 206.374 23.419 206.374 22.208H202.374C202.374 22.3465 202.351 22.3845 202.36 22.3645C202.364 22.3552 202.372 22.3405 202.384 22.3251C202.389 22.3179 202.394 22.3122 202.398 22.308C202.403 22.3038 202.405 22.302 202.405 22.3023L204.903 25.4257ZM206.374 22.208C206.374 21.0478 205.992 19.8687 204.971 19.0305L202.432 22.1215C202.419 22.1108 202.402 22.0938 202.386 22.0714C202.369 22.0491 202.36 22.0305 202.357 22.0215C202.35 22.0044 202.374 22.0524 202.374 22.208H206.374ZM204.971 19.0305C204.032 18.2593 202.861 18.024 201.758 18.024V22.024C202.351 22.024 202.475 22.1567 202.432 22.1215L204.971 19.0305ZM201.758 18.024C201.434 18.024 201.125 18.033 200.833 18.0524L201.099 22.0436C201.287 22.031 201.506 22.024 201.758 22.024V18.024ZM200.823 18.0531C200.552 18.0725 200.281 18.1015 200.011 18.1401L200.577 22.0999C200.755 22.0745 200.932 22.0555 201.108 22.0429L200.823 18.0531ZM198.294 20.12V24.44H202.294V20.12H198.294ZM201.974 25.32H196.67V29.32H201.974V25.32ZM198.67 27.32V18.728H194.67V27.32H198.67ZM198.67 18.728C198.67 18.7675 198.664 18.8706 198.614 19.0085C198.56 19.1536 198.471 19.2992 198.348 19.4222L195.52 16.5938C194.889 17.2248 194.67 18.0185 194.67 18.728H198.67ZM198.348 19.4222C198.262 19.5088 198.205 19.5164 198.262 19.4974L196.997 15.7026C196.479 15.8756 195.958 16.1552 195.52 16.5938L198.348 19.4222ZM198.313 19.4796C198.652 19.3566 199.118 19.2481 199.742 19.1803L199.31 15.2037C198.461 15.2959 197.664 15.4594 196.946 15.7204L198.313 19.4796ZM199.742 19.1803C200.423 19.1063 201.013 19.072 201.518 19.072V15.072C200.838 15.072 200.101 15.1177 199.31 15.2037L199.742 19.1803ZM201.518 19.072C203.433 19.072 204.525 19.489 205.127 19.995L207.701 16.933C206.095 15.583 203.923 15.072 201.518 15.072V19.072ZM205.151 20.0149C205.756 20.5072 206.094 21.1593 206.094 22.208H210.094C210.094 20.0887 209.312 18.2448 207.677 16.9131L205.151 20.0149ZM206.094 22.208C206.094 22.8948 205.933 23.4042 205.67 23.8109L209.03 25.9811C209.759 24.8518 210.094 23.5692 210.094 22.208H206.094ZM205.654 23.836C205.399 24.2434 205.013 24.6009 204.406 24.8885L206.118 28.5035C207.335 27.9271 208.34 27.0846 209.046 25.956L205.654 23.836ZM204.432 24.8764C203.842 25.1454 203.044 25.32 201.974 25.32V29.32C203.464 29.32 204.858 29.0786 206.092 28.5156L204.432 24.8764ZM196.67 27.712H200.318V23.712H196.67V27.712ZM198.318 25.712V31.976H202.318V25.712H198.318ZM199.685 30.0786C199.721 30.0669 199.74 30.0625 199.738 30.0631C199.736 30.0634 199.723 30.0664 199.696 30.0711C199.64 30.0807 199.551 30.0931 199.423 30.1059L199.821 34.0861C200.163 34.0519 200.582 33.9961 200.95 33.8734L199.685 30.0786ZM199.325 30.1181C199.107 30.1508 198.878 30.168 198.638 30.168V34.168C199.069 34.168 199.497 34.1372 199.919 34.0739L199.325 30.1181ZM198.638 30.168C198.387 30.168 198.251 30.1446 198.199 30.1317C198.146 30.1184 198.246 30.1326 198.39 30.2542L195.814 33.3138C196.673 34.0375 197.787 34.168 198.638 34.168V30.168ZM198.431 30.2892C198.607 30.4462 198.669 30.6027 198.682 30.644C198.692 30.6745 198.67 30.6217 198.67 30.44H194.67C194.67 31.2871 194.846 32.4547 195.773 33.2788L198.431 30.2892ZM198.67 30.44V25.712H194.67V30.44H198.67ZM218.729 27.32V29.32H219.833L220.422 28.3851L218.729 27.32ZM215.465 27.32L213.814 28.4494L214.41 29.32H215.465V27.32ZM214.097 25.256L215.777 24.1709V24.1709L214.097 25.256ZM212.633 22.88L210.901 23.8794L210.905 23.8868L210.909 23.894L212.633 22.88ZM211.265 20.48L209.506 21.4326L209.514 21.4466L209.522 21.4605L211.265 20.48ZM210.257 18.416L208.609 17.2829L207.989 18.1842L208.414 19.1921L210.257 18.416ZM210.977 17.696L209.83 16.0575L209.81 16.0715L209.79 16.0859L210.977 17.696ZM213.497 17.72L212.334 19.3475L212.361 19.3662L212.387 19.3841L213.497 17.72ZM214.457 18.968L212.668 19.8624L212.683 19.8917L212.698 19.9206L214.457 18.968ZM215.081 20.168L213.292 21.0624L213.313 21.1043L213.336 21.1452L215.081 20.168ZM215.729 21.416L213.927 22.2836L213.947 22.3244L213.968 22.3642L215.729 21.416ZM216.377 22.664L214.588 23.5584L214.609 23.6003L214.632 23.6412L216.377 22.664ZM217.001 23.816L215.228 24.7411L215.789 25.816H217.001V23.816ZM217.121 23.816V25.816H218.357L218.91 24.7104L217.121 23.816ZM218.105 21.776L219.921 22.6141V22.6141L218.105 21.776ZM218.945 19.88L217.114 19.076L217.109 19.0868L217.104 19.0977L218.945 19.88ZM219.881 17.744L218.94 15.9793L218.327 16.3061L218.049 16.9424L219.881 17.744ZM220.697 17.456L221.109 19.4131V19.4131L220.697 17.456ZM222.809 17.744L224.021 16.1531V16.1531L222.809 17.744ZM222.353 21.272L224.105 22.2358L224.11 22.2268L224.115 22.2176L222.353 21.272ZM220.937 23.72L219.219 22.6951L219.214 22.7035L220.937 23.72ZM215.273 26V24H213.273V26H215.273ZM218.873 26H220.873V24H218.873V26ZM218.873 31.976L219.448 33.8917L220.873 33.4641V31.976H218.873ZM218.153 32.096L217.954 30.1059L217.897 30.1116L217.841 30.1205L218.153 32.096ZM215.705 31.808L214.376 33.3028L214.4 33.324L214.425 33.3444L215.705 31.808ZM218.729 25.32H215.465V29.32H218.729V25.32ZM217.116 26.1906C216.712 25.6003 216.266 24.9274 215.777 24.1709L212.417 26.341C212.92 27.1206 213.386 27.8237 213.814 28.4494L217.116 26.1906ZM215.777 24.1709C215.297 23.4271 214.823 22.6588 214.357 21.866L210.909 23.894C211.403 24.7332 211.905 25.5489 212.417 26.3411L215.777 24.1709ZM214.365 21.8806C213.889 21.0543 213.436 20.2606 213.008 19.4995L209.522 21.4605C209.958 22.2354 210.417 23.0417 210.901 23.8794L214.365 21.8806ZM213.023 19.5274C212.629 18.7997 212.324 18.1721 212.1 17.6399L208.414 19.1921C208.702 19.8759 209.069 20.6243 209.506 21.4326L213.023 19.5274ZM211.905 19.5491C211.931 19.5114 212.001 19.4255 212.163 19.3061L209.79 16.0859C209.344 16.4145 208.935 16.8086 208.609 17.2829L211.905 19.5491ZM212.124 19.3345C212.107 19.3462 212.091 19.3551 212.078 19.3614C212.064 19.3676 212.056 19.3698 212.056 19.3699C212.056 19.37 212.092 19.36 212.177 19.36V15.36C211.382 15.36 210.556 15.549 209.83 16.0575L212.124 19.3345ZM212.177 19.36C212.304 19.36 212.369 19.3743 212.389 19.3795C212.404 19.3838 212.378 19.3786 212.334 19.3475L214.659 16.0925C213.891 15.5437 213.007 15.36 212.177 15.36V19.36ZM212.387 19.3841C212.328 19.3447 212.339 19.3356 212.404 19.4194C212.467 19.5013 212.558 19.6414 212.668 19.8624L216.246 18.0736C215.88 17.342 215.367 16.5631 214.606 16.0559L212.387 19.3841ZM212.698 19.9206C212.895 20.2842 213.093 20.6647 213.292 21.0624L216.87 19.2736C216.653 18.8393 216.435 18.4198 216.215 18.0154L212.698 19.9206ZM213.336 21.1452C213.539 21.5077 213.736 21.8871 213.927 22.2836L217.531 20.5484C217.306 20.0809 217.071 19.6283 216.826 19.1908L213.336 21.1452ZM213.968 22.3642C214.183 22.7627 214.389 23.1608 214.588 23.5584L218.166 21.7696C217.949 21.3352 217.723 20.9013 217.49 20.4678L213.968 22.3642ZM214.632 23.6412C214.847 24.0257 215.046 24.3923 215.228 24.7411L218.774 22.8909C218.572 22.5037 218.355 22.1023 218.122 21.6868L214.632 23.6412ZM217.001 25.816H217.121V21.816H217.001V25.816ZM218.91 24.7104C219.285 23.9593 219.623 23.2603 219.921 22.6141L216.289 20.9379C216.011 21.5397 215.692 22.2007 215.332 22.9216L218.91 24.7104ZM219.921 22.6141C220.217 21.9714 220.506 21.3208 220.786 20.6623L217.104 19.0977C216.84 19.7192 216.568 20.3326 216.289 20.9379L219.921 22.6141ZM220.776 20.684C221.065 20.0271 221.377 19.3143 221.713 18.5456L218.049 16.9424C217.713 17.7097 217.401 18.4209 217.114 19.076L220.776 20.684ZM220.822 19.5087C220.874 19.481 220.964 19.4437 221.109 19.4131L220.285 15.4989C219.822 15.5963 219.368 15.751 218.94 15.9793L220.822 19.5087ZM221.109 19.4131C221.296 19.3737 221.445 19.36 221.561 19.36V15.36C221.133 15.36 220.706 15.4103 220.285 15.4989L221.109 19.4131ZM221.561 19.36C221.637 19.36 221.664 19.3697 221.657 19.3676C221.653 19.3665 221.645 19.3635 221.632 19.3572C221.62 19.3509 221.608 19.3432 221.597 19.3349L224.021 16.1531C223.279 15.5875 222.416 15.36 221.561 15.36V19.36ZM221.597 19.3349C221.497 19.2585 221.408 19.1477 221.355 19.0256C221.306 18.9154 221.313 18.8563 221.313 18.896H225.313C225.313 17.9077 224.96 16.8689 224.021 16.1531L221.597 19.3349ZM221.313 18.896C221.313 18.8222 221.32 18.7728 221.322 18.7549C221.325 18.7357 221.327 18.7337 221.322 18.7519C221.317 18.7695 221.309 18.7997 221.294 18.844C221.279 18.8881 221.26 18.9422 221.234 19.0072L224.959 20.4648C225.119 20.0577 225.313 19.4836 225.313 18.896H221.313ZM221.234 19.0072C221.135 19.2624 220.932 19.6908 220.591 20.3264L224.115 22.2176C224.478 21.5412 224.771 20.9456 224.959 20.4648L221.234 19.0072ZM220.6 20.3082C220.264 20.9194 219.805 21.7131 219.219 22.6951L222.654 24.7449C223.252 23.7429 223.737 22.9046 224.105 22.2358L220.6 20.3082ZM219.214 22.7035C218.652 23.6574 217.926 24.8401 217.036 26.2549L220.422 28.3851C221.323 26.9519 222.07 25.7346 222.659 24.7365L219.214 22.7035ZM215.273 28H218.873V24H215.273V28ZM216.873 26V31.976H220.873V26H216.873ZM218.298 30.0603C218.326 30.052 218.315 30.0574 218.244 30.0692C218.178 30.0802 218.083 30.093 217.954 30.1059L218.352 34.0861C218.705 34.0507 219.099 33.9961 219.448 33.8917L218.298 30.0603ZM217.841 30.1205C217.644 30.1516 217.437 30.168 217.217 30.168V34.168C217.637 34.168 218.054 34.1364 218.465 34.0715L217.841 30.1205ZM217.217 30.168C217.091 30.168 216.991 30.1627 216.913 30.155C216.834 30.1473 216.785 30.1379 216.762 30.1324C216.738 30.1267 216.751 30.1276 216.789 30.1448C216.828 30.1623 216.9 30.2004 216.985 30.2716L214.425 33.3444C215.28 34.0575 216.401 34.168 217.217 34.168V30.168ZM217.034 30.3132C217.203 30.4636 217.266 30.6154 217.282 30.6639C217.294 30.7009 217.273 30.6572 217.273 30.488H213.273C213.273 31.3382 213.458 32.4864 214.376 33.3028L217.034 30.3132ZM217.273 30.488V26H213.273V30.488H217.273Z" fill="#34C1FC"/>
</svg>
