<svg width="156" height="97" viewBox="0 0 156 97" fill="none" xmlns="http://www.w3.org/2000/svg">
<g clip-path="url(#clip0_215_30)">
<path d="M3.95923 95.8887L0 80.2717H2.13224L3.98616 88.1722C4.43505 90.1204 4.88394 92.0641 5.1443 93.5589H5.18919C5.44506 92.0058 5.92986 90.1518 6.46404 88.1363L8.52894 80.2717H10.6387L12.569 88.1947C13.0179 90.0486 13.4264 91.9025 13.6598 93.5455H13.7047C14.0279 91.8352 14.4678 90.098 14.9571 88.1588L17.0175 80.2807H19.0779L14.6384 95.8887H12.5331L10.5624 87.7548C10.1311 86.0761 9.79093 84.3753 9.54344 82.6598H9.49855C9.18949 84.3789 8.78638 86.0798 8.29103 87.7548L6.06902 95.8887H3.95923Z" fill="black"/>
<path d="M33.7477 87.9163C33.7477 93.303 30.4842 96.14 26.4981 96.14C22.3773 96.14 19.4819 92.9439 19.4819 88.2215C19.4819 83.2613 22.5613 80.0203 26.7315 80.0203C30.9735 80.0427 33.7477 83.2837 33.7477 87.9163ZM21.6276 88.1721C21.6276 91.5074 23.4232 94.497 26.6058 94.497C29.7885 94.497 31.611 91.5568 31.611 88.0105C31.611 84.9087 29.986 81.6632 26.6283 81.6632C23.2705 81.6632 21.6366 84.7426 21.6366 88.1721H21.6276Z" fill="black"/>
<path d="M36.6206 80.4916C37.8975 80.2634 39.193 80.1552 40.49 80.1684C42.6447 80.1684 44.0318 80.559 45.0059 81.4388C45.4091 81.8164 45.7273 82.2754 45.9394 82.7855C46.1514 83.2955 46.2525 83.8449 46.2359 84.397C46.2468 85.2916 45.9649 86.1653 45.4333 86.8849C44.9017 87.6046 44.1495 88.1307 43.2911 88.3832V88.4505C44.4986 88.868 45.2169 89.9812 45.585 91.5927C46.0967 93.7699 46.4827 95.2737 46.788 95.8797H44.7051C44.4493 95.4308 44.1036 94.0841 43.6637 92.1494C43.2148 89.9947 42.3664 89.1822 40.5215 89.1149H38.6361V95.8886H36.6206V80.4916ZM38.6361 87.6021H40.6965C42.8512 87.6021 44.2203 86.4215 44.2203 84.6394C44.2203 82.6239 42.7569 81.7441 40.6292 81.7171C39.9596 81.6978 39.2902 81.7612 38.6361 81.9057V87.6021Z" fill="black"/>
<path d="M52.7179 80.2717H54.7334V94.1874H61.4039V95.8797H52.7179V80.2717Z" fill="black"/>
<path d="M63.9042 80.4917C65.3233 80.2784 66.7562 80.1704 68.1912 80.1685C71.0865 80.1685 73.1514 80.8373 74.516 82.1122C75.8807 83.387 76.7156 85.1916 76.7156 87.7188C76.7156 90.2461 75.93 92.3514 74.4711 93.7878C73.0122 95.2243 70.6017 96.0323 67.5672 96.0323C66.3436 96.0388 65.1207 95.9758 63.9042 95.8438V80.4917ZM65.9198 94.2996C66.5966 94.3898 67.2795 94.4274 67.9622 94.4118C72.2671 94.4118 74.6103 92.0057 74.6103 87.7862C74.6103 84.1052 72.5454 81.7665 68.2854 81.7665C67.4918 81.7533 66.699 81.8225 65.9198 81.973V94.2996Z" fill="black"/>
<path d="M85.056 80.4602C86.3338 80.2529 87.6265 80.1523 88.921 80.1594C90.914 80.1594 92.3729 80.6083 93.3022 81.4567C93.7504 81.87 94.1031 82.3761 94.3357 82.9398C94.5683 83.5034 94.6752 84.111 94.6488 84.7201C94.6791 85.328 94.5884 85.9359 94.3818 86.5084C94.1753 87.081 93.8572 87.6068 93.4458 88.0554C92.3819 89.1911 90.6402 89.7702 88.6741 89.7702C88.1303 89.7881 87.5863 89.7414 87.0536 89.631V95.8886H85.0381L85.056 80.4602ZM87.085 87.9881C87.6313 88.111 88.1907 88.1653 88.7504 88.1497C91.1834 88.1497 92.6647 86.9691 92.6647 84.8144C92.6647 82.754 91.2058 81.7575 88.9838 81.7575C88.3468 81.7387 87.7097 81.7929 87.085 81.9191V87.9881Z" fill="black"/>
<path d="M101.45 80.2717V89.5189C101.45 93.0158 103.003 94.4971 105.086 94.4971C107.402 94.4971 108.883 92.9664 108.883 89.5189V80.2717H110.926V89.3797C110.926 94.1739 108.398 96.1401 105.018 96.1401C101.818 96.1401 99.4116 94.3131 99.4116 89.4695V80.2717H101.45Z" fill="black"/>
<path d="M115.697 80.4603C116.977 80.2533 118.271 80.1527 119.567 80.1595C121.56 80.1595 123.019 80.6084 123.944 81.4568C124.396 81.8682 124.752 82.3735 124.989 82.9372C125.225 83.5009 125.336 84.1094 125.313 84.7202C125.343 85.3285 125.252 85.9369 125.045 86.5096C124.838 87.0823 124.518 87.6078 124.105 88.0555C123.041 89.1912 121.304 89.7703 119.333 89.7703C118.79 89.7882 118.246 89.7414 117.713 89.6311V95.8887H115.697V80.4603ZM117.713 87.9882C118.261 88.1114 118.822 88.1657 119.383 88.1498C121.816 88.1498 123.297 86.9692 123.297 84.8145C123.297 82.7541 121.838 81.7576 119.612 81.7576C118.975 81.7391 118.338 81.7933 117.713 81.9192V87.9882Z" fill="black"/>
<path d="M130.084 80.4602C131.362 80.2529 132.655 80.1523 133.949 80.1594C135.942 80.1594 137.401 80.6083 138.331 81.4567C138.779 81.87 139.131 82.3761 139.364 82.9398C139.597 83.5034 139.704 84.111 139.677 84.7201C139.707 85.328 139.617 85.9359 139.41 86.5084C139.204 87.081 138.886 87.6068 138.474 88.0554C137.41 89.1911 135.669 89.7702 133.702 89.7702C133.159 89.7881 132.615 89.7414 132.082 89.631V95.8886H130.066L130.084 80.4602ZM132.1 87.9881C132.646 88.1114 133.206 88.1657 133.765 88.1497C136.198 88.1497 137.68 86.9691 137.68 84.8144C137.68 82.754 136.221 81.7575 133.999 81.7575C133.362 81.7387 132.725 81.7929 132.1 81.9191V87.9881Z" fill="black"/>
<path d="M147.941 95.8886V89.263L143.003 80.2852H145.297L147.497 84.5945C148.098 85.7751 148.561 86.7268 149.05 87.8176H149.095C149.544 86.7986 150.069 85.7751 150.671 84.5945L152.915 80.2852H155.204L149.97 89.263V95.8886H147.941Z" fill="black"/>
<mask id="mask0_215_30" style="mask-type:luminance" maskUnits="userSpaceOnUse" x="42" y="0" width="80" height="75">
<path d="M121.609 0.140015H42.1554V74.8805H121.609V0.140015Z" fill="white"/>
</mask>
<g mask="url(#mask0_215_30)">
<path d="M83.4939 38.5696C77.5954 38.5696 71.6027 41.5682 67.7826 46.0122C63.6528 51.188 60.2727 57.2345 58.9529 63.7525C57.3459 68.4568 60.9864 73.8705 66.032 73.9019C72.101 74.0725 77.3171 69.9157 83.3502 69.606C88.4721 68.8294 93.0553 71.4824 97.6609 73.2241C101.58 74.8939 106.993 74.252 108.995 70.0459C110.571 65.7635 108.25 61.1938 106.333 57.3872C102.419 51.2104 98.2265 44.7149 91.8073 40.859C89.306 39.3305 86.425 38.5372 83.4939 38.5696ZM51.7931 23.9313C48.7855 23.9043 45.8229 25.7044 44.8398 28.7524C42.2183 36.9132 47.4883 47.2467 56.1519 48.9525C59.7699 49.5675 62.9481 46.7978 63.8459 43.467C65.7492 36.3386 61.8438 28.0611 55.2361 24.829C54.1824 24.2447 52.9981 23.9358 51.7931 23.9313ZM113.713 22.3691C106.639 22.7911 101.786 29.8297 101.095 36.4015C100.161 41.1373 102.693 47.4756 108.12 47.8527C115.684 47.7629 120.842 39.7053 121.057 32.7744C121.533 28.1912 118.813 22.625 113.713 22.3691ZM68.0116 0.512572C63.9222 0.611329 60.735 4.74562 60.0886 8.63303C58.742 16.3315 62.2343 25.8974 70.283 28.3349C71.0374 28.4948 71.8147 28.5161 72.5768 28.3977C78.0174 27.4999 80.3202 21.413 80.0957 16.5066C79.9297 10.0156 76.5585 2.55054 69.8116 0.72804C69.2262 0.572493 68.6217 0.499962 68.0161 0.512572H68.0116ZM95.8923 0.211815H95.3985C88.8222 1.34302 85.2086 8.29187 84.6834 14.3923C83.9428 19.9586 86.3713 27.0735 92.4717 28.3349C93.3689 28.4899 94.2895 28.4408 95.165 28.1912C102.513 25.7268 105.804 17.0453 104.74 9.84952C104.43 5.20349 100.915 0.139992 95.8923 0.211815Z" fill="white"/>
</g>
<mask id="mask1_215_30" style="mask-type:luminance" maskUnits="userSpaceOnUse" x="41" y="3" width="74" height="70">
<path d="M114.373 3.55609H41.316V72.5732H114.373V3.55609Z" fill="white"/>
</mask>
<g mask="url(#mask1_215_30)">
<path d="M79.3416 39.0455C73.9145 39.0455 68.4066 41.8151 64.8918 45.9135C61.0987 50.6987 57.9879 56.238 56.7714 62.2981C55.2945 66.6433 58.6432 71.6395 63.2803 71.6709C68.8645 71.828 73.6587 67.99 79.207 67.7072C83.9158 66.989 88.1309 69.4399 92.364 71.0425C95.9551 72.5867 100.947 71.9941 102.787 68.1112C104.233 64.1565 102.105 59.9324 100.341 56.44C96.7497 50.7391 92.8847 44.7419 86.9818 41.1777C84.6879 39.7685 82.0427 39.0356 79.3506 39.0634L79.3416 39.0455ZM50.1637 25.5383C48.7632 25.5042 47.3882 25.9169 46.238 26.7168C45.0879 27.5166 44.2224 28.662 43.767 29.9868C41.3564 37.5237 46.2 47.0447 54.1723 48.6472C57.4986 49.2173 60.4208 46.6587 61.2423 43.5837C62.993 36.9985 59.4019 29.3584 53.3284 26.3732C52.3675 25.836 51.287 25.5488 50.1861 25.5383H50.1637ZM107.097 24.0929C100.592 24.4834 96.1302 30.9834 95.4973 37.0479C94.6354 41.4246 96.9651 47.2781 101.952 47.6283C108.906 47.543 113.65 40.1003 113.848 33.7126C114.297 29.4796 111.797 24.3398 107.115 24.1063L107.097 24.0929ZM65.0893 3.90171C61.3321 3.99149 58.4008 7.81156 57.8083 11.3982C56.5514 18.5087 59.7834 27.3428 67.1812 29.5918C67.8748 29.7412 68.5901 29.761 69.291 29.6501C74.2916 28.8152 76.4104 23.2041 76.1994 18.6703C76.0513 12.6955 72.9494 5.78257 66.7457 4.09923C66.2057 3.95561 65.648 3.88911 65.0893 3.90171ZM90.73 3.6234C90.5819 3.6234 90.4293 3.6234 90.2811 3.6234C84.2346 4.66932 80.9083 11.0705 80.4055 16.7176C79.7008 21.8394 81.9542 28.4202 87.5878 29.5693C88.4055 29.7128 89.2452 29.6683 90.0432 29.4392C96.808 27.1678 99.838 19.1461 98.8595 12.5025C98.5767 8.21108 95.3446 3.52464 90.7255 3.60096L90.73 3.6234Z" fill="black"/>
</g>
</g>
<defs>
<clipPath id="clip0_215_30">
<rect width="155.213" height="96" fill="white" transform="translate(0 0.140015)"/>
</clipPath>
</defs>
</svg>
